<?xml version="1.0" encoding="utf-8"?>
<!-- Generator: Adobe Illustrator 25.2.1, SVG Export Plug-In . SVG Version: 6.00 Build 0)  -->
<svg version="1.1" id="Camada_1" xmlns="http://www.w3.org/2000/svg" xmlns:xlink="http://www.w3.org/1999/xlink" x="0px" y="0px"
	 viewBox="0 0 116 122.9" style="enable-background:new 0 0 116 122.9;" xml:space="preserve">
<path d="M67.3,0c1.7,0.2,3.5,0.4,5.2,0.7c20.8,3.8,34.8,15.8,41.2,35.9c6.9,21.9-2,45.2-21.3,57.7c-0.8,0.5-1.1,1-1.1,1.9
	c0,8,0,15.9,0,23.9c0,2.2-0.7,2.9-2.8,2.9c-15.8,0-31.7,0-47.5,0c-2.3,0-2.9-0.7-2.9-3c0-5.4,0-10.7,0-16.1c0-0.4,0-0.9,0-1.4
	c-0.6,0-1.1,0-1.5,0c-6.7,0-13.4,0-20,0c-2.4,0-3-0.6-3-3c0-6.7,0-13.4,0-20.2c0-0.4,0-0.9,0-1.5c-0.5,0-0.9,0-1.4,0
	c-3.2,0-6.3,0-9.5,0c-2.3,0-3.2-1.3-2.2-3.5C4.6,65,8.9,55.6,13,46.2c0.7-1.5,1-3.1,1.4-4.7c1.8-9.2,5.8-17.2,12-24.2
	c6.3-7.2,14-12.3,23.2-14.9c3.7-1.1,7.6-1.5,11.4-2.2c0.3-0.1,0.7-0.1,1-0.2C63.8,0,65.5,0,67.3,0z M87.2,118.8c0-0.6,0-1,0-1.4
	c0-7.6,0-15.2,0-22.8c0-1.3,0.4-2.2,1.6-2.9c7.8-4.6,13.7-11,17.8-19c4.8-9.5,6.3-19.5,4.4-29.9c-1.6-8.7-5.3-16.3-11.2-22.9
	c-5.7-6.4-12.7-11-20.9-13.5c-13.7-4.2-26.8-2.7-39,4.8C27.6,18.8,20.4,30,18,44.3c-0.1,0.8-0.4,1.6-0.7,2.3
	c-3.9,8.6-7.8,17.3-11.6,25.9c-0.2,0.4-0.3,0.8-0.5,1.3c3.2,0,6.3,0,9.3,0c2.3,0,3,0.7,3,3c0,6.7,0,13.4,0,20.2c0,0.4,0,0.9,0,1.5
	c0.6,0,1,0,1.5,0c6.5,0,13,0,19.6,0c3.1,0,3.5,0.4,3.5,3.4c0,5.2,0,10.5,0,15.7c0,0.4,0,0.8,0,1.3C57.2,118.8,72.1,118.8,87.2,118.8
	z"/>
<path d="M49.4,51.3c-3.3-0.1-6.6,0-9.8-0.4c-6.8-1-11.7-7.2-11.6-14.1c0.1-6.9,5-12.8,11.7-13.9c1.2-0.2,2-0.6,2.9-1.6
	c2.2-2.5,5.1-3.9,8.5-3.7c0.8,0,1.2-0.2,1.7-0.8C58,9.1,68,8,74.7,14.4c0.3,0.3,1,0.5,1.5,0.4c8.5-1.3,15.6,4,16.8,12.6
	c0.1,0.5,0.6,1,1.1,1.4c4,2.7,6,7.6,5.1,12.3c-1.1,5.6-5.9,9.8-11.6,10c-2.6,0.1-5.2,0-7.8,0.1c-0.6,0-1.3,0.2-1.7,0.6
	c-5.6,4.7-13.3,4.6-18.8-0.1c-0.4-0.3-1-0.5-1.5-0.5c-2.8-0.1-5.6,0-8.4,0C49.5,51.2,49.4,51.3,49.4,51.3z M55.8,47.1
	c-0.2-0.5-0.3-0.8-0.4-1.1c-0.3-1.6-0.7-3.2-0.9-4.8c-0.1-1.2,0.7-2.1,1.9-2.2c1-0.1,1.9,0.7,2.1,1.8c0.1,0.4,0.1,0.8,0.1,1.2
	c0.3,4,3.3,7.7,7.3,8.8c4.2,1.2,8.6-0.3,11-3.6c1.4-1.8,2-3.9,2.1-6.1c0.1-1.3,1-2.1,2.1-2.1c1.1,0,2,1,2,2.3c0,0.5,0,1-0.1,1.5
	c-0.3,1.4-0.7,2.8-1,4.3c1.8,0,3.6,0,5.4,0c2.3,0,4.2-0.9,5.8-2.5c3.3-3.3,3-9.1-0.2-11.4c-1.2,1.9-2.4,3.8-3.7,5.6
	c-0.8,1.1-2.1,1.2-3,0.4c-1-0.8-1-1.9-0.1-3.1c0.2-0.3,0.5-0.5,0.7-0.8c1-1.3,1.7-2.6,1.9-4.4c-1.5-0.3-3.6-0.1-3.5-2.4
	c0.1-2.1,1.9-1.8,3.4-1.9c-0.9-4.9-6.1-8.6-10.6-7.8c0.3,1.7,0.7,3.3,0.9,5c0.2,1.6-0.6,2.6-1.8,2.7c-1.2,0.1-2-0.8-2.2-2.4
	c-0.2-1.4-0.6-2.7-0.9-4.4c-1,0.7-1.6,1.2-2.2,1.7c-1.3,1-2.3,1-3.2,0.1c-0.9-1-0.7-2.1,0.6-3.2c0.6-0.6,1.3-1.1,2-1.6
	c-4.8-3.8-11.8-2.8-14.8,2.1c0.3,0.2,0.6,0.4,0.9,0.6c1.9,1.3,3.3,3,4.1,5.2c0.4,1.1,0,2.2-0.9,2.7c-1,0.5-2.1,0.1-2.7-1
	c-0.2-0.3-0.3-0.7-0.5-1c-0.7-0.9-1.5-1.8-2.2-2.7c-0.4,0.8-0.4,1.3-0.5,1.8c-0.2,1.4-1.1,2.2-2.3,2.1c-1.2-0.2-1.8-1.1-1.8-2.6
	c0-0.8,0.1-1.6,0.2-2.4c-0.4,0-0.6,0-0.8,0c-3.9,0.7-6.5,4.5-5.9,8.7c0.3,1.7-0.2,2.7-1.4,3c-1.3,0.3-2.3-0.5-2.6-2.2
	c-0.2-1.3-0.2-2.7-0.4-4.1c-1.7,0.4-3.3,1.2-4.5,2.6c-3.1,3.2-3.9,7-2.3,11.1c1.6,4,4.7,6.1,9.1,6.4c2,0.1,4,0,6,0
	C50.4,47.1,53,47.1,55.8,47.1z"/>
<path d="M68.7,47.1c-3.3,0-6-2.7-6-5.9c0-1.2,0.6-2,1.7-2.2c1-0.2,1.9,0.5,2.2,1.7c0.1,0.3,0.1,0.6,0.2,0.9c0.5,1.4,2.2,1.9,3.3,0.9
	c0.2-0.2,0.4-0.5,0.6-0.7c0.8-0.9,1.9-1,2.8-0.4c0.9,0.6,1,1.8,0.4,2.8C72.9,46,70.9,47.1,68.7,47.1z"/>
<path d="M36,37.2c0-1.4,0.6-2.3,1.8-2.4c1.1-0.1,2,0.6,2.2,1.9c0.2,1.3,0.9,2,2.2,2.2c1.3,0.2,2,1.2,1.8,2.2
	C44,42.4,43.1,43,41.7,43C38.7,42.9,36.1,40.3,36,37.2z"/>
<path d="M79,34.6c0,1.2-0.7,2-1.8,2.2c-1.1,0.1-2-0.5-2.2-1.7c-0.2-1.4-0.9-2.2-2.3-2.4c-1.3-0.2-1.9-1.1-1.8-2.3
	c0.1-1.1,1.1-1.8,2.3-1.7C76.4,28.9,79,31.6,79,34.6z"/>
<path d="M58.5,34.6c0,1.2-0.6,2.1-1.7,2.2c-1.2,0.2-2.1-0.4-2.3-1.7c-0.2-1.4-1-2.2-2.4-2.4c-1.3-0.2-1.9-1.1-1.7-2.3
	c0.2-1.1,1-1.7,2.2-1.7C55.8,28.8,58.4,31.4,58.5,34.6z"/>
<g>
</g>
<g>
</g>
<g>
</g>
<g>
</g>
<g>
</g>
<g>
</g>
</svg>
