<?xml version="1.0" encoding="utf-8"?>
<!-- Generator: Adobe Illustrator 25.2.1, SVG Export Plug-In . SVG Version: 6.00 Build 0)  -->
<svg version="1.1" id="Camada_1" xmlns="http://www.w3.org/2000/svg" xmlns:xlink="http://www.w3.org/1999/xlink" x="0px" y="0px"
	 viewBox="0 0 131.3 131.8" style="enable-background:new 0 0 131.3 131.8;" xml:space="preserve">
<g>
	<path d="M0,122.1c1.2-1.4,2.1-2.4,2.8-3.1c3.3,2.2,6.2,4.6,9.5,6.4c7.3,3.9,12.8,2.7,18.2-3.5c4.7-5.4,9-11,14-16.2
		c6.3-6.6,13.6-11.9,22.8-14c7.6-1.7,14.9-0.4,22.3,1.2c4.9,1.1,10,1.5,15,2c1.2,0.1,2.5-0.4,4-0.7c0-7.8,0-15.3,0-22.8
		c0-3.7,0.2-3.9,4.1-4c3.2,0,6.3,0.1,9.5,0c2.6-0.1,3.7,1,3.6,3.6c-0.1,5.4,0,10.8,0,16.5c1.3-0.5,2.4-0.9,3.8-1.4
		c0.6,1,1.2,2.1,1.8,3c-0.2,0.4-0.2,0.5-0.2,0.6c-5.3,1.5-5.7,5.4-5.4,10.1c0.4,7.1,0.1,6.3-6.1,6.3c-2.3,0-4.7,0-7,0
		c-3.8,0-3.9-0.1-3.9-4c0-1,0-2,0-3.6c-9.9,2.8-18.6-1.6-27.8-3c-10.1-1.6-19.2,1-26.8,7.5c-5.8,5-10.9,11-16.2,16.6
		c-1.6,1.7-2.9,3.7-4.5,5.4c-7.1,7.8-15,9.1-24.1,3.8C6.2,126.8,3.4,124.4,0,122.1z M112.9,71.8c0,7,0,13.8,0,20.9
		c2.7-1,5.1-1.8,7.5-2.8c0.4-0.2,0.9-0.9,0.9-1.4c0.1-5.5,0-11.1,0-16.8C118.5,71.8,115.9,71.8,112.9,71.8z M121.2,101.7
		c0-2.4,0-4.8,0-7.4c-1.7,0.6-3.4,1.5-5.1,1.8c-3.3,0.7-3.9,2.6-3,5.6C115.8,101.7,118.4,101.7,121.2,101.7z"/>
	<path d="M129.5,31c-0.3,1.3-0.6,2.5-0.9,3.8c-9.1-1-17-4.2-23.5-10.8c-4.2-4.2-8.6-8.4-13.5-11.8c-11-7.5-23.2-10.7-36.2-5.7
		c-5.7,2.2-10.9,5.9-16.2,9.1c-4.4,2.7-8.6,5.8-13.1,8.5c-8.7,5.1-15.5,4.1-22.5-3.1C2.7,20,1.8,19,0.7,17.8c1.1-0.9,2-1.7,3.3-2.9
		c1,1.2,1.9,2.3,2.9,3.3c5.6,5.6,10.5,6.3,17.3,2.1c5.9-3.6,11.6-7.6,17.4-11.4C48.9,4,56.7,0.2,65.9,0C79-0.3,90,4.8,99.8,13
		c3.2,2.7,6.1,5.7,9.1,8.6c4.2,4.1,8.9,7,14.8,7.9C125.6,29.8,127.5,30.5,129.5,31z"/>
	<path d="M16,108.4c0,2.7,0,5.3,0,8.2c-1.4,0-2.5,0-4.1,0c0-2.6,0-5.3,0-7.8c-0.5-0.3-0.7-0.5-0.8-0.5c-6.2-0.2-5.9,0.4-5.9-6.5
		c0-12.6,0-25.3,0-37.9c0-4.9,0-4.9,5.1-5.1c0.4,0,0.8-0.1,1.5-0.2c0-7,0-14,0-21.1c1.4,0,2.5,0,3.9,0c0,6.9,0,13.9,0,20.7
		c0.5,0.3,0.6,0.5,0.8,0.5c6.6,0,5.8,0.3,5.8,6.2c0,12.8,0,25.7,0,38.5c0,4.6,0,4.6-4.7,4.8C17.2,108.2,16.7,108.3,16,108.4z
		 M18,103.9c0-13.7,0-27.1,0-40.6c-2.9,0-5.6,0-8.3,0c0,13.6,0,27,0,40.6C12.5,103.9,15.1,103.9,18,103.9z"/>
	<path d="M89.1,16.1c1.6,0,2.8,0,4.2,0c0,3.4,0,6.7,0,9.8c0.4,0.3,0.6,0.5,0.7,0.6c5.9,0.3,5.9-0.6,5.9,6.6c0,12.1,0,24.2,0,36.3
		c0,6.2,0,6.2-6.4,6.7c0,4.1,0,8.2,0,12.5c-1.5,0-2.7,0-4.2,0c0-4.1,0-8.2,0-12.1c-0.5-0.3-0.7-0.5-0.8-0.5
		c-5.6-0.2-5.6,0.7-5.6-6.1c0-12.3,0-24.6,0-37c0-7.5-0.2-6,6.2-6.6C89.1,23,89.1,19.6,89.1,16.1z M87,71.5c3,0,5.7,0,8.4,0
		c0-13.7,0-27.1,0-40.5c-2.9,0-5.6,0-8.4,0C87,44.5,87,57.9,87,71.5z"/>
	<path d="M37.7,39.3c0-6.5,0-12.7,0-19c1.4,0,2.6,0,4.2,0c0,6.3,0,12.6,0,18.8c6.3,1,6.3,1,6.3,7.2c0,12.9-0.1,25.8,0,38.8
		c0,2.7-0.8,3.9-3.6,3.8c-3.5-0.2-6.9-0.1-10.4,0c-2.1,0.1-3.1-0.8-3.1-2.8c0-14.6,0-29.1,0-43.7c0-1.9,0.9-2.8,2.8-2.8
		C35,39.5,36.1,39.4,37.7,39.3z M35.5,43.8c0,13.8,0,27.2,0,40.6c2.9,0,5.6,0,8.3,0c0-13.7,0-27.2,0-40.6
		C40.9,43.8,38.3,43.8,35.5,43.8z"/>
	<path d="M67.7,11.3c6.2,0.8,6.2,0.8,6.2,7.1c0,7.5,0,15.1,0,22.6c0,4.7,0,4.7-4.6,4.9c-0.5,0-1,0.1-1.7,0.2c0,2,0,3.9,0,5.9
		c-1.5,0-2.7,0-4.1,0c0-1.9,0-3.7,0-5.4c-0.4-0.4-0.6-0.6-0.7-0.6C57,45.4,57,45.4,57,39.6c0-7.7,0-15.5,0-23.2c0-4.7,0-4.7,4.6-4.8
		c0.4,0,0.8,0,1.5-0.1c0.1-1.3,0.3-2.5,0.4-4c1.3,0,2.5,0,4,0C67.6,8.8,67.7,10,67.7,11.3z M61.3,15.9c0,8.7,0,17.1,0,25.6
		c2.9,0,5.6,0,8.4,0c0-8.6,0-17.1,0-25.6C66.7,15.9,64,15.9,61.3,15.9z"/>
</g>
<g>
</g>
<g>
</g>
<g>
</g>
<g>
</g>
<g>
</g>
<g>
</g>
</svg>
