<?xml version="1.0" encoding="utf-8"?>
<!-- Generator: Adobe Illustrator 25.2.1, SVG Export Plug-In . SVG Version: 6.00 Build 0)  -->
<svg version="1.1" id="Camada_1" xmlns="http://www.w3.org/2000/svg" xmlns:xlink="http://www.w3.org/1999/xlink" x="0px" y="0px"
	 viewBox="0 0 141.9 158.6" style="enable-background:new 0 0 141.9 158.6;" xml:space="preserve">
<g>
	<path d="M59.6,95.1c2.4-0.2,3.2-1.4,3.3-3.6c0.1-3.1,2.2-4.8,5.2-4.8c2.2,0,4.5-0.1,6.7-0.1c3,0,4.9,1.7,5.3,4.6
		c0.1,0.5,0.2,0.9,0.2,1.4c-0.1,1.3,0.7,1.8,2,1.8c0-0.8,0-1.5,0-2.3c0-3.5,1.5-5.3,4.9-5.6c1-0.1,1.3-0.6,1.7-1.4
		c0.7-1.5,0.8-2.6-0.4-4c-1.5-1.7-1.1-4.3,0.5-6.1c1.2-1.3,2.5-2.6,3.9-3.9c1.7-1.6,4.4-1.7,6.3-0.1c1,0.8,1.7,0.8,2.9,0.4
		c1.5-0.6,2.3-1.3,2.5-3.1c0.3-2.4,2.3-3.9,4.7-4c1.6,0,3.2,0,4.8,0c3,0,5,1.7,5.3,4.7c0.1,1,0.5,1.5,1.4,2c1.7,0.8,3,1.1,4.6-0.3
		c1.6-1.4,4.2-0.9,5.8,0.6c1.3,1.2,2.6,2.5,3.9,3.9c1.7,1.9,1.8,4.4,0.3,6.5c-0.4,0.6-1.2,1.2-1.1,1.7c0.1,1.1,0.7,2.1,1.2,3.1
		c0.1,0.2,0.5,0.3,0.8,0.3c0.9,0.2,1.8,0.2,2.7,0.6c1.9,0.8,2.9,2.3,3,4.4c0.1,1.8,0,3.6,0,5.5c-0.1,2.2-1.7,4.1-3.9,4.6
		c-0.1,0-0.3,0.1-0.5,0.1c-2.2-0.3-2.7,1.3-3.3,2.9c-0.1,0.2,0,0.6,0.2,0.8c0.3,0.4,0.6,0.8,1,1.3c1.6,2.1,1.5,4.7-0.3,6.6
		c-1.2,1.3-2.5,2.5-3.7,3.7c-1.7,1.7-4.5,2-6.2,0.3c-1.7-1.7-3.1-1.1-4.7-0.2c-0.2,0.1-0.4,0.5-0.5,0.8c-0.1,0.5-0.1,1.1-0.2,1.6
		c-0.4,2.7-2.2,4.4-5,4.5c-2.1,0-4.2,0-6.5,0c0,0.6,0,1.3,0,1.9c0,2.6-1.7,4.6-4.3,5c-1,0.2-2,0.2-2.9,0.4c-0.4,0.1-0.7,0.5-0.9,0.8
		c-0.2,0.3-0.2,0.7-0.4,0.9c-1.3,1.8-0.7,3.2,0.7,4.7c2.4,2.6,2.2,5.2-0.3,7.7c-0.2,0.2-0.4,0.4-0.6,0.6c-1.3,1.4-2.6,2.7-4,4.1
		c-1.9,1.9-4.5,2.1-6.6,0.5c-1-0.7-1.8-1.8-2.9-2c-1-0.1-2.1,0.9-3.2,1.2c-0.9,0.3-1.2,0.7-1.2,1.6c0,1-0.1,2-0.3,2.9
		c-0.4,2.2-2.2,3.9-4.5,4c-2.5,0.1-5.1,0.2-7.6,0.1c-2.8,0-4.8-1.8-5-4.6c-0.1-2.3-0.9-3.6-3.3-4.3c-1.6-0.5-2.7-0.6-3.8,0.7
		c-0.2,0.3-0.5,0.4-0.8,0.7c-2.1,1.7-4.8,1.6-6.7-0.2c-1.7-1.6-3.5-3.3-5.2-5c-2-2-2.3-4.7-0.5-6.8c1.6-1.8,1.8-3.3,0.7-5.5
		c-0.7-1.4-1.4-2.1-2.9-2c-0.4,0-0.8-0.1-1.2-0.1c-2.4-0.4-4.1-2.2-4.3-4.6c-0.1-0.9,0-1.7,0-2.9c-2.9,2.3-6.1,1.3-9.2,1.4
		c-2.5,0.1-4.3-1.9-4.6-4.6c-0.1-0.6-0.1-1.6-0.4-1.8c-1-0.6-2.1-1-3.2-1.3c-0.3-0.1-0.8,0.4-1.2,0.7c-1.4,1.1-2.9,1.8-4.7,1.3
		c-1.9-0.5-6.8-5.3-7.3-7.2c-0.4-1.8,0-3.3,1.3-4.6c0.8-0.8,0.8-1.5,0.4-2.6c-0.6-1.6-1.3-2.3-3.1-2.5c-2.4-0.2-4-2.3-4.1-4.7
		c0-1.6,0-3.3,0-4.9c0-2.8,1.8-4.9,4.6-5.1c1.3-0.1,2-0.5,2.2-1.7c0-0.1,0.1-0.3,0.2-0.4c0.7-1,0.4-1.8-0.3-2.8
		C4.8,80.9,5,78.3,7,76.3c1.1-1.1,2.2-2.3,3.4-3.4c2-2,4.6-2.1,6.8-0.3c0.8,0.7,1.5,0.7,2.5,0.4c1.7-0.6,2.6-1.4,2.8-3.3
		c0.2-2.2,2.3-3.7,4.5-3.8c1.9-0.1,3.7,0,5.6,0c2.4,0.1,4.4,1.9,4.6,4.4c0.1,1.3,0.6,1.8,1.8,2.4c1.6,0.8,2.7,0.8,4.2-0.4
		c1.8-1.4,4.4-1,6,0.6c1.2,1.2,2.4,2.4,3.5,3.6c2,2,2.1,4.6,0.3,6.8c-0.9,1-1.1,1.9-0.5,3.1c0.5,1.1,0.9,2,2.4,2.1
		c3.1,0.3,4.7,2.2,4.7,5.4C59.6,94.2,59.6,94.6,59.6,95.1z M97.8,102.9c-0.2-0.4-0.4-0.8-0.7-1.1c-1.6-1.6-3.2-3.1-4.8-4.7
		c-0.8-0.8-1.5-0.7-2.3-0.1c-1.1,1-2.3,1.9-3.5,2.8c-0.3,0.2-0.8,0.3-1.2,0.1c-2.5-1-5-2-7.5-3c-0.4-0.2-0.8-0.6-0.8-0.9
		c-0.3-1.4-0.5-2.9-0.6-4.3c-0.1-1.1-0.7-1.6-1.8-1.5c-2.1,0.1-4.3,0.1-6.4,0.1c-1.4,0-1.7,0.4-1.9,1.8c-0.1,1.4-0.3,2.7-0.4,4.1
		c0,0.6-0.4,0.8-0.9,1.1c-2.4,1-4.7,2.1-7.1,3.1c-0.4,0.1-1,0.1-1.3-0.1c-1.2-0.8-2.3-1.7-3.4-2.6C52.5,97,51.8,97,51,97.8
		c-1.5,1.6-3,3.1-4.5,4.7c-0.8,0.8-0.8,1.5-0.1,2.4c0.9,1.1,1.9,2.2,2.7,3.4c0.2,0.3,0.3,0.8,0.1,1.2c-0.9,2.3-1.8,4.7-2.7,7
		c-0.1,0.4-0.6,0.8-1,0.8c-1.5,0.3-2.9,0.4-4.4,0.6c-1,0.1-1.5,0.6-1.5,1.6c0,2.2,0.1,4.5,0.1,6.7c0,1.1,0.5,1.6,1.6,1.7
		c1.4,0.1,2.9,0.3,4.3,0.4c0.7,0,0.9,0.3,1.2,0.9c0.9,2.3,1.9,4.5,2.9,6.8c0.3,0.6,0.3,0.9-0.1,1.4c-0.9,1.1-1.8,2.3-2.7,3.5
		c-0.9,1.1-0.8,1.6,0.1,2.5c1.5,1.5,3.1,2.9,4.6,4.5c0.8,0.8,1.5,0.9,2.4,0.1c1.2-1,2.4-2,3.6-2.9c0.3-0.2,0.9-0.3,1.3-0.2
		c2.4,0.9,4.7,1.8,7.1,2.7c0.6,0.2,0.8,0.5,0.9,1.1c0.2,1.6,0.4,3.2,0.6,4.7c0.1,1.1,0.7,1.5,1.8,1.5c2.2-0.1,4.3-0.1,6.5-0.1
		c1.1,0,1.7-0.5,1.8-1.6c0.1-1.6,0.4-3.2,0.5-4.8c0-0.7,0.3-0.9,0.9-1.2c2.2-0.9,4.3-1.8,6.4-2.8c0.6-0.3,0.9-0.3,1.4,0.1
		c1.3,1,2.6,2,3.9,3c0.8,0.7,1.6,0.6,2.3-0.2c1.5-1.6,3-3.1,4.5-4.7c0.8-0.8,0.9-1.5,0.1-2.4c-1.1-1.2-2.1-2.5-3.1-3.8
		c-0.2-0.3-0.3-0.9-0.1-1.3c0.8-2.2,1.8-4.3,2.6-6.4c0.2-0.6,0.5-0.8,1.1-0.9c1.6-0.2,3.2-0.4,4.7-0.6c1.1-0.1,1.5-0.7,1.5-1.8
		c-0.1-2.2-0.1-4.3-0.1-6.5c0-1.3-0.4-1.6-1.7-1.8c-1.5-0.2-2.9-0.3-4.4-0.4c-0.7,0-0.9-0.4-1.1-1c-0.8-2.2-1.7-4.4-2.7-6.6
		c-0.3-0.7-0.3-1.1,0.2-1.6c0.9-1.1,1.8-2.3,2.7-3.5C97.4,103.7,97.6,103.3,97.8,102.9z M55.8,94.7c0.3-2.2,0-2.6-2.1-2.8
		c-0.9-0.1-1.8-0.1-2.6-0.3c-0.4-0.1-0.8-0.5-1-0.8c-0.8-1.9-1.6-3.9-2.3-5.8c-0.1-0.3-0.1-0.9,0.1-1.2c0.7-1,1.4-1.9,2.2-2.8
		c0.6-0.7,0.5-1.4-0.1-2c-1.1-1.1-2.1-2.2-3.2-3.2c-0.7-0.7-1.4-0.7-2.2-0.1c-0.8,0.7-1.6,1.2-2.4,1.9c-0.5,0.4-0.8,0.4-1.4,0.1
		c-2-0.9-4-1.7-6-2.6c-0.4-0.2-0.7-0.6-0.8-1c-0.2-1-0.3-2.1-0.4-3.2c-0.1-0.9-0.5-1.4-1.5-1.4c-1.5,0-3,0-4.6,0
		c-0.9,0-1.5,0.4-1.6,1.4c-0.1,1-0.3,2-0.4,3.1c-0.1,0.6-0.3,0.9-1,1.2c-2,0.7-3.9,1.6-5.9,2.4c-0.4,0.1-1,0.1-1.3-0.1
		c-0.9-0.6-1.7-1.3-2.5-2c-0.7-0.6-1.4-0.5-2,0.1c-1.1,1.1-2.2,2.2-3.3,3.3C9,79.5,9,80.1,9.5,80.8c0.7,0.9,1.4,1.7,2,2.6
		c0.2,0.3,0.3,0.9,0.1,1.3c-0.7,1.9-1.6,3.8-2.3,5.7c-0.2,0.6-0.5,0.9-1.1,0.9c-1,0.1-2,0.2-3.1,0.3c-1,0.1-1.5,0.6-1.5,1.6
		c0,1.5,0,3,0,4.4c0,1,0.5,1.5,1.5,1.7c1.1,0.1,2.2,0.2,3.3,0.4c0.3,0.1,0.8,0.4,0.9,0.8c0.9,1.9,1.7,3.9,2.4,5.9
		c0.1,0.3,0.1,0.9-0.1,1.2c-0.6,0.9-1.3,1.7-2,2.6c-0.8,1-0.8,1.5,0.1,2.4c1,1,1.9,1.9,2.9,2.9c1,1,1.4,1,2.4,0.2
		c0.9-0.7,1.7-1.4,2.6-2c0.3-0.2,0.9-0.2,1.3-0.1c1.9,0.7,3.8,1.6,5.8,2.3c0.6,0.2,0.9,0.5,0.9,1.1c0.1,1.1,0.3,2.3,0.4,3.4
		c0.1,1,0.6,1.5,1.6,1.5c1.5,0,3,0,4.4,0c1,0,1.5-0.5,1.6-1.5c0.1-1.2,0.2-2.4,0.5-3.6c0.1-0.3,0.4-0.8,0.7-0.9
		c1.9-0.8,3.7-1.6,5.6-2.4c0.3-0.1,0.7-0.2,0.9-0.1c1.8,1,1.8,1,2.5-1c0.1-0.2,0.1-0.4,0.2-0.5c1.3-1.8,0.7-3.3-0.7-4.8
		c-1.9-2-1.7-4.8,0.2-6.8c1.6-1.7,3.3-3.5,5-5.1c1.3-1.3,2.9-1.9,4.8-1.4C54.3,93.9,55,94.3,55.8,94.7z M99.6,111.7
		c0.7,0.1,1.2,0.1,1.6,0.2c2,0.8,3.9,1.5,5.9,2.4c0.3,0.1,0.7,0.6,0.8,0.9c0.2,1.2,0.3,2.4,0.5,3.6c0.1,0.9,0.6,1.4,1.5,1.4
		c1.5,0,3,0,4.4,0c1.1,0,1.6-0.4,1.7-1.5c0.1-1.2,0.3-2.3,0.4-3.5c0.1-0.6,0.3-0.9,0.9-1.1c1.8-0.7,3.6-1.5,5.5-2.2
		c0.4-0.1,1-0.1,1.3,0.1c1,0.7,1.9,1.4,2.8,2.2c0.8,0.7,1.5,0.7,2.3-0.1c1-1,2-2.1,3.1-3.1c0.7-0.7,0.8-1.4,0.1-2.2
		c-0.8-1-1.6-1.9-2.3-3c-0.2-0.3-0.2-0.8-0.1-1.1c0.7-1.8,1.5-3.5,2.2-5.3c0.2-0.7,0.6-0.9,1.2-0.9c1.2-0.1,2.3-0.3,3.5-0.4
		c0.9-0.1,1.3-0.6,1.3-1.5c0-1.5,0-3,0-4.4c0-1-0.4-1.6-1.4-1.7c-1.1-0.1-2.3-0.2-3.4-0.4c-0.4-0.1-0.8-0.5-1-0.8
		c-0.8-1.9-1.6-3.9-2.3-5.8c-0.1-0.3-0.1-0.9,0.1-1.2c0.7-1,1.4-1.9,2.2-2.8c0.5-0.7,0.6-1.3,0-1.9c-1.1-1.1-2.2-2.3-3.4-3.4
		c-0.6-0.7-1.3-0.6-2-0.1c-0.8,0.7-1.7,1.3-2.5,2c-0.5,0.5-0.9,0.4-1.5,0.1c-1.1-0.6-2.2-1.2-3.3-1.7c-1.1-0.5-2.6-0.5-3.2-1.3
		c-0.6-0.8-0.4-2.3-0.6-3.5c-0.1-1.1-0.7-1.5-1.7-1.5c-1.4,0-2.9,0-4.3,0c-1,0-1.5,0.5-1.6,1.5c-0.1,1.1-0.2,2.1-0.4,3.2
		c-0.1,0.3-0.4,0.7-0.8,0.9c-2,0.9-4,1.7-6.1,2.5c-0.3,0.1-0.9,0.1-1.2-0.1c-0.9-0.6-1.6-1.2-2.4-1.9c-0.8-0.7-1.5-0.6-2.2,0.1
		c-1,1.1-2.1,2.1-3.1,3.1c-0.7,0.7-0.7,1.4-0.1,2.1c0.7,0.8,1.3,1.7,2,2.5c0.4,0.5,0.4,0.9,0.1,1.4c-0.8,1.8-1.6,3.7-2.3,5.6
		c-0.2,0.7-0.6,0.9-1.2,0.9c-1.1,0.1-2.1,0.1-3.2,0.4c-0.5,0.1-1.2,0.7-1.2,1.1C85.9,92.6,86,94,86,95.6c0.7-0.6,1.3-1,1.8-1.4
		c2.3-1.8,4.9-1.7,7,0.3c1.6,1.6,3.3,3.2,4.9,4.8c2,2,2.4,4.8,0.5,6.8C98.4,108,98.3,109.7,99.6,111.7
		C99.7,111.8,99.8,111.8,99.6,111.7z"/>
	<path d="M102.4,36.4c2.3,0,4.6,0,7.2,0c-4.7-5.8-9.1-11.3-13.7-17c-1.6,1.9-3.1,3.8-4.7,5.7c1.9,2.4,3.8,4.8,5.9,7.4
		c-4.7,0-9.2,0-13.7,0c0,1.2,0,2.4,0,3.6c1.9,0,3.7,0,5.7,0c0,0.5,0.1,0.8,0.1,1.2c0,10.5,0,20.9,0,31.4c0,0.6-0.3,1.2-0.7,1.7
		c-0.8,1-1.8,1.9-2.9,3c0-11.3,0-22.4,0-33.5c-0.7,0-1.4,0-2.1,0c0,0.4-0.1,0.9-0.1,1.3c0,13.6,0,27.3,0,40.9c0,1-0.1,1.9-1.2,2.4
		c-0.4,0.2-0.7,0.5-1,0.7c-1.2-0.6-1.5-1.4-1.5-2.7c0-17.4,0-34.7,0-52.1c0-0.4,0-0.9,0-1.5c3.2,0,6.4,0,9.9,0
		c-6.3-7.8-12.4-15.4-18.6-23c-6.2,7.7-12.4,15.2-18.7,23c3.3,0,6.4,0,9.7,0c0,0.6,0,1,0,1.5c0,17.2,0,34.4,0,51.5
		c0,0.4-0.1,0.8,0,1.1c0.3,1.5-0.1,2.8-1.5,3.8c-0.5-0.3-1.2-0.7-1.8-1.2c-0.3-0.2-0.4-0.8-0.4-1.2c0-12.9,0-25.8,0-38.8
		c0-1.9,0-3.8,0-5.8c-0.7,0-1.3,0-2,0c0,11.6,0,23.2,0,34.9c-1.2-1.2-2.4-2.3-3.4-3.4c-0.2-0.2-0.3-0.6-0.3-0.9
		c0-11.2,0-22.4,0-33.5c0-0.2,0-0.4,0.1-0.8c1.8,0,3.6,0,5.5,0c0-1.2,0-2.4,0-3.6c-4.5,0-9,0-13.8,0c2.2-2.7,4.2-5.1,6.2-7.7
		c-1.5-1.8-2.9-3.6-4.5-5.6c-4.6,5.7-9.1,11.2-13.8,17c2.5,0,4.8,0,7.1,0c0,9.9,0,19.7,0,29.4c-1.1-0.9-2.3-1.7-3.4-2.7
		c-0.2-0.2-0.2-0.8-0.2-1.2c0-6.7,0-13.3,0-20c0-0.6,0-1.1,0-1.8c-3.7,0-7.3,0-11.3,0c7.3-9,14.4-17.8,21.7-26.6
		c2.3,2.8,4.5,5.6,6.9,8.5C59.1,14.6,65,7.4,71,0c6,7.4,11.9,14.7,17.9,22.2c2.4-2.9,4.7-5.7,7.1-8.7c7.1,8.8,14.1,17.6,21.4,26.5
		c-3.9,0-7.5,0-11.3,0c0,0.6,0,1,0,1.5c0,6.2,0,12.3,0,18.5c0,0.9-0.2,1.5-1.1,2c-0.9,0.5-1.6,1.3-2.5,2
		C102.4,54.9,102.4,45.7,102.4,36.4z"/>
	<path d="M57.9,122.3c0-7.8,6.2-14,14-14c7.8,0,14.1,6.3,14.1,14c0,7.8-6.3,14-14.1,14C64.1,136.3,57.9,130,57.9,122.3z M61.6,122.3
		c0,5.7,4.7,10.4,10.4,10.3c5.7,0,10.3-4.7,10.3-10.4c0-5.6-4.7-10.3-10.4-10.3C66.2,111.9,61.5,116.6,61.6,122.3z"/>
	<path d="M29.6,107.2c-6.6,0-11.8-5.3-11.8-11.8c0-6.6,5.4-11.8,12-11.8c6.5,0,11.8,5.4,11.7,12C41.4,102,36.1,107.3,29.6,107.2z
		 M29.7,103.5c4.5,0,8.1-3.7,8.1-8.1c0-4.5-3.7-8.1-8.2-8.1c-4.4,0-8.1,3.7-8.1,8.1C21.5,99.9,25.2,103.6,29.7,103.5z"/>
	<path d="M100.1,93.8c0-6.5,5.4-11.8,11.9-11.7c6.5,0,11.8,5.4,11.8,11.9c-0.1,6.6-5.4,11.8-12,11.7
		C105.3,105.6,100.1,100.3,100.1,93.8z M120.1,93.9c0-4.5-3.7-8.1-8.1-8.1c-4.5,0-8.2,3.7-8.2,8.2c0,4.5,3.7,8.2,8.2,8.1
		C116.5,102,120.1,98.3,120.1,93.9z"/>
</g>
<g>
</g>
<g>
</g>
<g>
</g>
<g>
</g>
<g>
</g>
<g>
</g>
</svg>
