<?xml version="1.0" encoding="utf-8"?>
<!-- Generator: Adobe Illustrator 25.2.1, SVG Export Plug-In . SVG Version: 6.00 Build 0)  -->
<svg version="1.1" id="Camada_1" xmlns="http://www.w3.org/2000/svg" xmlns:xlink="http://www.w3.org/1999/xlink" x="0px" y="0px"
	 viewBox="0 0 50.5 50.5" style="enable-background:new 0 0 50.5 50.5;" xml:space="preserve">
<style type="text/css">
	.st0{fill:url(#SVGID_1_);}
	.st1{fill:#FFFFFF;}
</style>
<linearGradient id="SVGID_1_" gradientUnits="userSpaceOnUse" x1="0" y1="25.2476" x2="50.4951" y2="25.2476">
	<stop  offset="0" style="stop-color:#2B6900"/>
	<stop  offset="1" style="stop-color:#95E861"/>
</linearGradient>
<path class="st0" d="M39.7,50.5h-29C4.8,50.5,0,45.7,0,39.7v-29C0,4.8,4.8,0,10.8,0h29c5.9,0,10.8,4.8,10.8,10.8v29
	C50.5,45.7,45.7,50.5,39.7,50.5z"/>
<path class="st1" d="M40.6,15.5c-1,0.4-2.1,0.7-3.1,0.9c0.5-0.1,1.2-1,1.5-1.4c0.5-0.6,0.8-1.2,1-1.9c0-0.1,0-0.1,0-0.2
	c-0.1,0-0.1,0-0.2,0c-1.2,0.6-2.4,1.1-3.7,1.4c-0.1,0-0.2,0-0.3-0.1c-0.1-0.1-0.2-0.2-0.3-0.3c-0.5-0.5-1.1-0.8-1.8-1.1
	c-0.9-0.4-1.8-0.5-2.7-0.4c-0.9,0.1-1.8,0.3-2.6,0.7c-0.8,0.4-1.5,1-2.1,1.7c-0.6,0.7-1,1.6-1.3,2.5c-0.2,0.9-0.2,1.8-0.1,2.7
	c0,0.2,0,0.2-0.1,0.2c-5.1-0.8-9.3-2.6-12.7-6.5c-0.1-0.2-0.2-0.2-0.4,0c-1.5,2.3-0.8,5.9,1.1,7.7c0.2,0.2,0.5,0.5,0.8,0.7
	c-0.1,0-1.3-0.1-2.5-0.7c-0.1-0.1-0.2,0-0.2,0.1c0,0.2,0,0.5,0,0.7c0.3,2.3,1.9,4.4,4,5.3c0.3,0.1,0.5,0.2,0.8,0.3
	c-0.5,0.1-1,0.2-2.4,0.1c-0.2,0-0.2,0.1-0.2,0.2c1.1,2.9,3.3,3.8,5.1,4.3c0.2,0,0.5,0,0.7,0.1c0,0,0,0,0,0c-0.6,0.9-2.5,1.5-3.5,1.8
	c-1.7,0.6-3.5,0.9-5.2,0.7c-0.3,0-0.3,0-0.4,0c-0.1,0,0,0.1,0.1,0.2c0.4,0.2,0.7,0.5,1.1,0.7c1.1,0.6,2.3,1.1,3.5,1.4
	c6.3,1.8,13.4,0.5,18.1-4.3c3.7-3.7,5-8.9,5-14c0-0.2,0.2-0.3,0.4-0.4c1-0.7,1.7-1.6,2.5-2.6c0.2-0.2,0.2-0.4,0.2-0.5v0
	C40.7,15.4,40.7,15.4,40.6,15.5"/>
<g>
</g>
<g>
</g>
<g>
</g>
<g>
</g>
<g>
</g>
<g>
</g>
</svg>
