<?xml version="1.0" encoding="utf-8"?>
<!-- Generator: Adobe Illustrator 25.2.1, SVG Export Plug-In . SVG Version: 6.00 Build 0)  -->
<svg version="1.1" id="Camada_1" xmlns="http://www.w3.org/2000/svg" xmlns:xlink="http://www.w3.org/1999/xlink" x="0px" y="0px"
	 viewBox="0 0 264.8 80.1" style="enable-background:new 0 0 264.8 80.1;" xml:space="preserve">
<style type="text/css">
	.st0{fill:#FFFFFF;}
	.st1{fill:#67C122;}
	.st2{fill:none;stroke:#67C122;stroke-width:3;stroke-miterlimit:10;}
</style>
<g>
	<path class="st0" d="M92.2,41c-2.1,0-3.8-0.6-5.1-1.7c-1.3-1.1-1.9-2.6-1.9-4.6h4c0,0.4,0.1,0.8,0.2,1.2c0.2,0.3,0.4,0.6,0.7,0.8
		s0.6,0.4,1,0.5c0.4,0.1,0.7,0.2,1.1,0.2c0.8,0,1.5-0.2,2.1-0.6c0.6-0.4,0.9-0.9,0.9-1.6c0-0.3-0.1-0.5-0.2-0.7s-0.3-0.4-0.5-0.5
		c-0.2-0.1-0.5-0.3-0.8-0.4c-0.4-0.1-0.7-0.2-0.9-0.3c-0.3-0.1-0.7-0.2-1.2-0.3c-0.4-0.1-0.7-0.2-0.9-0.2c-0.2-0.1-0.5-0.1-0.9-0.3
		s-0.7-0.2-0.9-0.3c-0.2-0.1-0.5-0.2-0.8-0.4c-0.3-0.2-0.6-0.3-0.8-0.5c-0.2-0.2-0.4-0.4-0.6-0.7S86,30,85.9,29.8
		c-0.1-0.3-0.2-0.6-0.3-1s-0.1-0.8-0.1-1.2c0-1.7,0.6-3.1,1.8-4s2.8-1.4,4.8-1.4c2.1,0,3.7,0.5,4.8,1.6c1.2,1,1.7,2.5,1.7,4.3h-3.9
		c0-0.7-0.3-1.3-0.8-1.7c-0.5-0.4-1.2-0.6-2-0.6c-0.7,0-1.3,0.1-1.8,0.4s-0.8,0.7-0.8,1.3c0,0.3,0.1,0.5,0.2,0.7
		c0.1,0.2,0.3,0.4,0.5,0.5c0.2,0.1,0.4,0.3,0.8,0.4c0.4,0.1,0.7,0.2,0.9,0.3c0.3,0.1,0.6,0.2,1.1,0.3c0.6,0.1,1,0.2,1.2,0.3
		s0.7,0.2,1.2,0.4c0.5,0.2,0.9,0.4,1.2,0.5c0.3,0.2,0.6,0.4,1,0.7c0.4,0.3,0.7,0.6,0.9,0.9s0.4,0.7,0.5,1.2s0.2,1,0.2,1.5
		c0,1.3-0.3,2.3-1,3.3c-0.6,0.9-1.5,1.6-2.5,2C94.7,40.8,93.5,41,92.2,41z"/>
	<path class="st0" d="M102.3,40.7V22.5h4v18.2H102.3z"/>
	<path class="st0" d="M123,22.5v3.7h-5.1v14.5h-4V26.1h-5v-3.7H123z"/>
	<path class="st0" d="M129.6,37h7.3v3.7h-11.2V22.5h10.9v3.6h-7v3.6h6.3v3.6h-6.3V37z"/>
	<path class="st0" d="M152.4,41c-2.1,0-3.8-0.6-5.1-1.7c-1.3-1.1-1.9-2.6-1.9-4.6h4c0,0.4,0.1,0.8,0.2,1.2c0.2,0.3,0.4,0.6,0.7,0.8
		s0.6,0.4,1,0.5c0.4,0.1,0.7,0.2,1.1,0.2c0.8,0,1.5-0.2,2.1-0.6c0.6-0.4,0.9-0.9,0.9-1.6c0-0.3-0.1-0.5-0.2-0.7s-0.3-0.4-0.5-0.5
		c-0.2-0.1-0.5-0.3-0.8-0.4c-0.4-0.1-0.7-0.2-0.9-0.3c-0.3-0.1-0.7-0.2-1.2-0.3c-0.4-0.1-0.7-0.2-0.9-0.2c-0.2-0.1-0.5-0.1-0.9-0.3
		s-0.7-0.2-0.9-0.3c-0.2-0.1-0.5-0.2-0.8-0.4c-0.3-0.2-0.6-0.3-0.8-0.5c-0.2-0.2-0.4-0.4-0.6-0.7s-0.4-0.5-0.5-0.8
		c-0.1-0.3-0.2-0.6-0.3-1s-0.1-0.8-0.1-1.2c0-1.7,0.6-3.1,1.8-4s2.8-1.4,4.8-1.4c2.1,0,3.7,0.5,4.8,1.6c1.2,1,1.7,2.5,1.7,4.3h-3.9
		c0-0.7-0.3-1.3-0.8-1.7c-0.5-0.4-1.2-0.6-2-0.6c-0.7,0-1.3,0.1-1.8,0.4s-0.8,0.7-0.8,1.3c0,0.3,0.1,0.5,0.2,0.7
		c0.1,0.2,0.3,0.4,0.5,0.5c0.2,0.1,0.4,0.3,0.8,0.4c0.4,0.1,0.7,0.2,0.9,0.3c0.3,0.1,0.6,0.2,1.1,0.3c0.6,0.1,1,0.2,1.2,0.3
		s0.7,0.2,1.2,0.4c0.5,0.2,0.9,0.4,1.2,0.5c0.3,0.2,0.6,0.4,1,0.7c0.4,0.3,0.7,0.6,0.9,0.9s0.4,0.7,0.5,1.2s0.2,1,0.2,1.5
		c0,1.3-0.3,2.3-1,3.3c-0.6,0.9-1.5,1.6-2.5,2C154.9,40.8,153.7,41,152.4,41z"/>
	<path class="st0" d="M166.4,37h7.3v3.7h-11.2V22.5h10.9v3.6h-7v3.6h6.3v3.6h-6.3V37z"/>
	<path class="st0" d="M184.7,31.2h9.7c0,2.9-0.9,5.2-2.6,7.1c-1.7,1.9-4,2.8-6.7,2.8c-2.7,0-4.9-0.9-6.7-2.7
		c-1.8-1.8-2.7-4.1-2.7-6.8c0-2.7,0.9-5,2.7-6.8c1.8-1.8,4-2.7,6.7-2.7c2.3,0,4.3,0.6,6,1.9s2.8,3,3.2,5h-4.1
		c-0.3-0.7-0.6-1.2-1.1-1.7s-1.1-0.8-1.7-1.1c-0.7-0.3-1.4-0.4-2.1-0.4c-1.6,0-2.9,0.5-3.9,1.6c-1,1.1-1.5,2.5-1.5,4.2
		c0,1.1,0.2,2.1,0.7,3c0.5,0.9,1.1,1.5,1.9,2c0.8,0.5,1.8,0.7,2.8,0.7c0.8,0,1.5-0.1,2.2-0.4s1.3-0.6,1.8-1.1c0.5-0.5,0.9-1,1.1-1.6
		h-5.5V31.2z"/>
	<path class="st0" d="M210.2,39c-1.4,1.4-3.2,2-5.4,2c-2.2,0-4-0.7-5.4-2c-1.4-1.4-2.1-3.1-2.1-5.2V22.5h4v11.2c0,1.1,0.3,2,1,2.7
		s1.5,1,2.6,1s1.9-0.3,2.6-1c0.7-0.7,1-1.6,1-2.7V22.5h3.9v11.4C212.3,35.9,211.6,37.7,210.2,39z"/>
	<path class="st0" d="M226.3,40.7l-3.5-6.2h-2.5v6.2h-4V22.5h7.4c1.2,0,2.3,0.3,3.3,0.8c1,0.5,1.7,1.2,2.3,2.1s0.8,2,0.8,3.1
		s-0.3,2.2-0.9,3.1c-0.6,0.9-1.4,1.6-2.4,2.1l4,6.9H226.3z M220.2,26.1v4.7h3.1c0.8,0,1.4-0.2,1.9-0.7c0.5-0.4,0.7-1,0.7-1.7
		c0-0.5-0.1-0.9-0.3-1.2s-0.5-0.6-0.9-0.8s-0.9-0.3-1.4-0.3H220.2z"/>
	<path class="st0" d="M241.9,41.1c-2.8,0-5.1-0.9-6.9-2.7s-2.8-4.1-2.8-6.8s0.9-5,2.8-6.8c1.8-1.8,4.2-2.7,6.9-2.7
		c1.8,0,3.5,0.4,5,1.2c1.5,0.8,2.6,2,3.5,3.4s1.2,3.1,1.2,4.8c0,2.7-0.9,5-2.8,6.8C247,40.2,244.7,41.1,241.9,41.1z M241.9,37.3
		c1.1,0,2-0.2,2.9-0.7s1.5-1.2,2-2.1s0.7-1.9,0.7-3c0-1.6-0.5-3-1.6-4.1c-1.1-1.1-2.4-1.7-4.1-1.7c-1.6,0-3,0.6-4.1,1.7
		c-1.1,1.1-1.7,2.5-1.7,4.1c0,1.6,0.6,3,1.7,4.1C239,36.8,240.3,37.3,241.9,37.3z"/>
</g>
<g>
	<g>
		<path class="st1" d="M91,64.4c-1,0-2-0.1-3-0.4s-1.7-0.7-2.3-1.2l1-2.4c0.6,0.4,1.2,0.8,2,1c0.8,0.3,1.5,0.4,2.3,0.4
			c0.6,0,1.1-0.1,1.4-0.2c0.4-0.1,0.6-0.3,0.8-0.5c0.2-0.2,0.3-0.5,0.3-0.8c0-0.4-0.1-0.7-0.4-0.9c-0.3-0.2-0.6-0.4-1.1-0.5
			s-0.9-0.3-1.5-0.4c-0.5-0.1-1.1-0.3-1.6-0.5s-1-0.4-1.5-0.7c-0.4-0.3-0.8-0.7-1.1-1.2c-0.3-0.5-0.4-1.1-0.4-1.8
			c0-0.8,0.2-1.5,0.6-2.2c0.4-0.7,1-1.2,1.8-1.6c0.8-0.4,1.8-0.6,3-0.6c0.8,0,1.6,0.1,2.4,0.3c0.8,0.2,1.5,0.5,2.1,0.9l-0.9,2.4
			c-0.6-0.4-1.2-0.6-1.8-0.8s-1.2-0.3-1.8-0.3s-1,0.1-1.4,0.2c-0.4,0.1-0.6,0.3-0.8,0.6s-0.2,0.5-0.2,0.8c0,0.4,0.1,0.6,0.4,0.9
			s0.6,0.4,1.1,0.5s0.9,0.3,1.5,0.4c0.5,0.1,1.1,0.3,1.6,0.5c0.5,0.2,1,0.4,1.5,0.7c0.4,0.3,0.8,0.7,1.1,1.2
			c0.3,0.5,0.4,1.1,0.4,1.8c0,0.8-0.2,1.5-0.6,2.2c-0.4,0.6-1,1.2-1.8,1.6C93.2,64.2,92.2,64.4,91,64.4z"/>
		<path class="st1" d="M98.5,64.1V50.2h3v11.3h6.5v2.6H98.5z"/>
		<path class="st1" d="M109.6,64.1V50.2h3v11.3h6.5v2.6H109.6z"/>
		<path class="st1" d="M131.6,64.3c-1,0-1.9-0.2-2.7-0.5s-1.5-0.8-2.1-1.5c-0.6-0.6-1.1-1.4-1.4-2.2c-0.3-0.9-0.5-1.8-0.5-2.8
			s0.2-2,0.5-2.8c0.3-0.9,0.8-1.6,1.4-2.2s1.3-1.1,2.1-1.5s1.7-0.5,2.7-0.5c0.9,0,1.8,0.2,2.6,0.5s1.5,0.8,2.1,1.5l-0.9,0.9
			c-0.5-0.6-1.1-1-1.7-1.3c-0.6-0.3-1.3-0.4-2.1-0.4c-0.8,0-1.5,0.1-2.2,0.4c-0.7,0.3-1.2,0.7-1.7,1.2c-0.5,0.5-0.9,1.1-1.1,1.8
			c-0.3,0.7-0.4,1.5-0.4,2.3s0.1,1.6,0.4,2.3c0.3,0.7,0.7,1.3,1.1,1.8c0.5,0.5,1.1,0.9,1.7,1.2c0.7,0.3,1.4,0.4,2.2,0.4
			c0.7,0,1.4-0.1,2.1-0.4c0.6-0.3,1.2-0.7,1.7-1.3l0.9,0.9c-0.6,0.7-1.3,1.2-2.1,1.5S132.6,64.3,131.6,64.3z"/>
		<path class="st1" d="M140.6,62.9h7.7v1.3h-9.1V50.2h8.8v1.3h-7.5V62.9z M140.5,56.4h6.8v1.3h-6.8V56.4z"/>
		<path class="st1" d="M151.6,64.1V50.2h4.8c1.1,0,2,0.2,2.8,0.6c0.8,0.4,1.4,0.9,1.8,1.6s0.6,1.6,0.6,2.6c0,1-0.2,1.8-0.6,2.5
			c-0.4,0.7-1,1.3-1.8,1.6c-0.8,0.4-1.7,0.6-2.8,0.6h-4.1l0.6-0.7v5.1H151.6z M152.9,59.2l-0.6-0.7h4c1.3,0,2.3-0.3,2.9-0.9
			c0.7-0.6,1-1.5,1-2.6c0-1.1-0.3-2-1-2.6s-1.6-0.9-2.9-0.9h-4l0.6-0.7V59.2z M160.4,64.1l-3.3-5.1h1.5l3.3,5.1H160.4z"/>
		<path class="st1" d="M167.2,64.1V51.5h-4.5v-1.3h10.4v1.3h-4.5v12.7H167.2z"/>
		<path class="st1" d="M175.2,64.1V50.2h1.4v13.9H175.2z"/>
		<path class="st1" d="M182.2,64.1h-1.4V50.2h8.8v1.3h-7.5V64.1z M182,57h6.8v1.3H182V57z"/>
		<path class="st1" d="M192.4,64.1V50.2h1.4v13.9H192.4z"/>
		<path class="st1" d="M203.6,64.3c-1,0-1.9-0.2-2.7-0.5s-1.5-0.8-2.1-1.5c-0.6-0.6-1.1-1.4-1.4-2.2c-0.3-0.9-0.5-1.8-0.5-2.8
			s0.2-2,0.5-2.8c0.3-0.9,0.8-1.6,1.4-2.2s1.3-1.1,2.1-1.5s1.7-0.5,2.7-0.5c0.9,0,1.8,0.2,2.6,0.5s1.5,0.8,2.1,1.5l-0.9,0.9
			c-0.5-0.6-1.1-1-1.7-1.3c-0.6-0.3-1.3-0.4-2.1-0.4c-0.8,0-1.5,0.1-2.2,0.4c-0.7,0.3-1.2,0.7-1.7,1.2s-0.9,1.1-1.1,1.8
			c-0.3,0.7-0.4,1.5-0.4,2.3s0.1,1.6,0.4,2.3c0.3,0.7,0.7,1.3,1.1,1.8s1.1,0.9,1.7,1.2c0.7,0.3,1.4,0.4,2.2,0.4
			c0.7,0,1.4-0.1,2.1-0.4c0.6-0.3,1.2-0.7,1.7-1.3l0.9,0.9c-0.6,0.7-1.3,1.2-2.1,1.5S204.5,64.3,203.6,64.3z"/>
		<path class="st1" d="M208.8,64.1l5.9-13.9h1.3l5.9,13.9h-1.4l-5.4-13.1h0.6l-5.4,13.1H208.8z M211.1,60.4l0.4-1.2h7.5l0.4,1.2
			H211.1z"/>
		<path class="st1" d="M224.1,64.1V50.2h5.2c1.4,0,2.6,0.3,3.6,0.9c1,0.6,1.8,1.4,2.4,2.5c0.6,1,0.9,2.3,0.9,3.6
			c0,1.4-0.3,2.6-0.9,3.6c-0.6,1-1.4,1.9-2.4,2.5c-1,0.6-2.2,0.9-3.6,0.9H224.1z M225.4,62.9h3.8c1.1,0,2.1-0.2,3-0.7s1.5-1.2,2-2
			s0.7-1.8,0.7-3c0-1.1-0.2-2.1-0.7-3s-1.1-1.5-2-2s-1.8-0.7-3-0.7h-3.8V62.9z"/>
		<path class="st1" d="M244.9,64.3c-1,0-1.9-0.2-2.7-0.5c-0.8-0.4-1.5-0.8-2.2-1.5c-0.6-0.6-1.1-1.4-1.4-2.2s-0.5-1.8-0.5-2.8
			s0.2-2,0.5-2.8c0.3-0.9,0.8-1.6,1.4-2.2c0.6-0.6,1.3-1.1,2.1-1.5s1.7-0.5,2.7-0.5c1,0,1.9,0.2,2.7,0.5s1.5,0.8,2.1,1.5
			s1.1,1.4,1.4,2.2c0.3,0.9,0.5,1.8,0.5,2.8s-0.2,2-0.5,2.8c-0.3,0.9-0.8,1.6-1.4,2.2s-1.3,1.1-2.1,1.5S245.9,64.3,244.9,64.3z
			 M244.9,62.9c0.8,0,1.5-0.1,2.1-0.4c0.7-0.3,1.2-0.7,1.7-1.2s0.9-1.1,1.1-1.8c0.3-0.7,0.4-1.5,0.4-2.3s-0.1-1.6-0.4-2.3
			c-0.3-0.7-0.6-1.3-1.1-1.8s-1.1-0.9-1.7-1.2c-0.7-0.3-1.4-0.4-2.1-0.4s-1.5,0.1-2.2,0.4s-1.2,0.7-1.7,1.2s-0.9,1.1-1.1,1.8
			c-0.3,0.7-0.4,1.5-0.4,2.3c0,0.8,0.1,1.6,0.4,2.3c0.3,0.7,0.7,1.3,1.1,1.8s1.1,0.9,1.7,1.2C243.4,62.8,244.1,62.9,244.9,62.9z"/>
	</g>
</g>
<path class="st2" d="M46.4,9.8h211.1c3.2,0,5.8,3,5.8,6.6V71c0,3.6-2.6,6.6-5.8,6.6h-197"/>
<g>
	<path class="st1" d="M11.1,33.5c0-4.1,0-8,0-11.9c0-4,0.9-7.8,3-11.3C18.9,2.4,28-1.5,36.9,0.5c8.7,2,15.4,9.5,16.1,18.5
		c0.3,4.1,0.2,8.1,0.2,12.2c0,0.7,0,1.3,0,2.2c1.1,0,2.2,0,3.2,0c4.5,0,7.7,2.9,7.8,7.4c0.2,9.5,0.1,19.1,0.1,28.6
		c0,1.2,0,2.4-0.1,3.6c-0.3,4-3.4,7-7.4,7c-16.5,0-33.1,0-49.6,0c-3.9,0-7.1-3-7.2-7C0,69.3,0,65.3,0,61.4c0-6.9-0.1-13.8,0.1-20.7
		c0.1-4.4,3.3-7.3,7.8-7.3C8.9,33.5,9.8,33.5,11.1,33.5z M32.2,38.1c-7.9,0-15.8,0-23.6,0c-2.9,0-3.9,1-3.9,3.9c0,9.9,0,19.8,0,29.7
		c0,2.7,1,3.8,3.8,3.8c15.9,0,31.7,0,47.6,0c2.6,0,3.7-1.1,3.7-3.8c0-10,0-19.9,0-29.9c0-2.8-1-3.8-3.8-3.8
		C48,38.1,40.1,38.1,32.2,38.1z M48.6,33.4c0-4.4,0.1-8.6,0-12.8C48.3,12.1,41.5,5,33.3,4.7C24.1,4.4,16.7,10.5,16,19.5
		c-0.4,4-0.1,8-0.2,12.1c-0.1,1.6,0.5,1.9,2,1.9c8.5-0.1,17,0,25.5,0C44.9,33.4,46.6,33.4,48.6,33.4z"/>
	<path class="st1" d="M32.1,68.5c-0.8,0-1.7,0-2.5,0c-2,0-2.7-0.7-2.3-2.8c0.4-2.4,0.9-4.9,1.4-7.3c0.2-0.9,0.1-1.5-0.6-2.2
		c-2.4-2.4-2.4-6-0.1-8.4c2.3-2.3,6-2.3,8.3-0.1c2.4,2.3,2.5,6,0,8.4c-0.7,0.7-0.9,1.3-0.6,2.3c0.5,2.3,0.9,4.6,1.3,7
		c0.4,2.3-0.2,3-2.5,3C33.7,68.5,32.9,68.5,32.1,68.5z"/>
</g>
<g>
</g>
<g>
</g>
<g>
</g>
<g>
</g>
<g>
</g>
<g>
</g>
</svg>
