<?xml version="1.0" encoding="utf-8"?>
<!-- Generator: Adobe Illustrator 24.1.2, SVG Export Plug-In . SVG Version: 6.00 Build 0)  -->
<svg version="1.1" id="Camada_1" xmlns="http://www.w3.org/2000/svg" xmlns:xlink="http://www.w3.org/1999/xlink" x="0px" y="0px"
	 viewBox="0 0 43.7 43.7" style="enable-background:new 0 0 43.7 43.7;" xml:space="preserve">
<style type="text/css">
	.st0{fill:#FFFFFF;}
</style>
<g>
	<g>
		<path class="st0" d="M33.5,7.8c-1.4,0-2.6,1.1-2.6,2.6c0,1.4,1.1,2.6,2.6,2.6c1.4,0,2.6-1.1,2.6-2.6C36,9,34.9,7.8,33.5,7.8z"/>
		<path class="st0" d="M22.1,11.1c-5.9,0-10.8,4.8-10.8,10.8c0,5.9,4.8,10.8,10.8,10.8c5.9,0,10.8-4.8,10.8-10.8
			C32.8,15.9,28,11.1,22.1,11.1z M22.1,28.8c-3.8,0-6.9-3.1-6.9-6.9s3.1-6.9,6.9-6.9s6.9,3.1,6.9,6.9S25.9,28.8,22.1,28.8z"/>
		<path class="st0" d="M30.6,43.7H13.1C5.9,43.7,0,37.9,0,30.6V13.1C0,5.9,5.9,0,13.1,0h17.5c7.2,0,13.1,5.9,13.1,13.1v17.5
			C43.7,37.9,37.8,43.7,30.6,43.7z M13.1,4.1c-5,0-9,4-9,9v17.5c0,5,4,9,9,9h17.5c5,0,9-4,9-9V13.1c0-5-4-9-9-9
			C30.6,4.1,13.1,4.1,13.1,4.1z"/>
	</g>
</g>
</svg>
