<?xml version="1.0" encoding="utf-8"?>
<!-- Generator: Adobe Illustrator 25.2.1, SVG Export Plug-In . SVG Version: 6.00 Build 0)  -->
<svg version="1.1" id="Camada_1" xmlns="http://www.w3.org/2000/svg" xmlns:xlink="http://www.w3.org/1999/xlink" x="0px" y="0px"
	 viewBox="0 0 50.5 50.5" style="enable-background:new 0 0 50.5 50.5;" xml:space="preserve">
<style type="text/css">
	.st0{fill:url(#SVGID_1_);}
	.st1{fill:#FFFFFF;}
</style>
<linearGradient id="SVGID_1_" gradientUnits="userSpaceOnUse" x1="0" y1="25.2476" x2="50.4951" y2="25.2476">
	<stop  offset="0" style="stop-color:#2B6900"/>
	<stop  offset="1" style="stop-color:#95E861"/>
</linearGradient>
<path class="st0" d="M39.7,50.5h-29C4.8,50.5,0,45.7,0,39.7v-29C0,4.8,4.8,0,10.8,0h29c5.9,0,10.8,4.8,10.8,10.8v29
	C50.5,45.7,45.7,50.5,39.7,50.5z"/>
<g>
	<path class="st1" d="M33,15.7c-0.9,0-1.7,0.8-1.7,1.7s0.8,1.7,1.7,1.7c0.9,0,1.7-0.8,1.7-1.7S33.9,15.7,33,15.7"/>
	<path class="st1" d="M25.4,17.9c-4,0-7.2,3.3-7.2,7.3c0,4,3.2,7.3,7.2,7.3c4,0,7.2-3.3,7.2-7.3C32.5,21.2,29.3,17.9,25.4,17.9
		 M25.4,29.9c-2.5,0-4.6-2.1-4.6-4.7c0-2.6,2.1-4.7,4.6-4.7c2.5,0,4.6,2.1,4.6,4.7C30,27.8,27.9,29.9,25.4,29.9"/>
	<path class="st1" d="M31.1,40.1H19.4c-4.8,0-8.8-4-8.8-8.9V19.3c0-4.9,3.9-8.9,8.8-8.9h11.6c4.8,0,8.8,4,8.8,8.9v11.9
		C39.8,36.1,35.9,40.1,31.1,40.1 M19.4,13.2c-3.3,0-6,2.8-6,6.1v11.9c0,3.4,2.7,6.1,6,6.1h11.6c3.3,0,6-2.8,6-6.1V19.3
		c0-3.4-2.7-6.1-6-6.1H19.4z"/>
</g>
<g>
</g>
<g>
</g>
<g>
</g>
<g>
</g>
<g>
</g>
<g>
</g>
</svg>
