<?xml version="1.0" encoding="utf-8"?>
<!-- Generator: Adobe Illustrator 25.2.1, SVG Export Plug-In . SVG Version: 6.00 Build 0)  -->
<svg version="1.1" id="Camada_1" xmlns="http://www.w3.org/2000/svg" xmlns:xlink="http://www.w3.org/1999/xlink" x="0px" y="0px"
	 viewBox="0 0 127.3 121.8" style="enable-background:new 0 0 127.3 121.8;" xml:space="preserve">
<g>
	<path d="M127.3,111.9c-0.6,0.7-1.2,1.5-1.9,2.2c-2.5,2.3-5,4.5-7.5,6.8c-1.4,1.3-2.9,1.2-4.2-0.2c-6.6-7.3-13.2-14.6-19.9-21.9
		c-0.3-0.4-0.6-0.8-0.7-1.3c-0.2-0.7,0-1.3,0.7-1.7c3.5-2.2,6.5-5.1,9-8.5c0.9-1.2,2.5-1.3,3.5-0.2c1.2,1.3,2.5,2.7,3.7,4
		c5.3,5.9,10.7,11.8,16,17.6c0.5,0.5,0.8,1.1,1.2,1.7C127.3,110.9,127.3,111.4,127.3,111.9z"/>
	<path d="M0,0c1.5,0,2.9,0,4.5,0c0,24.9,0,49.7,0,74.7c0.4,0,0.6,0,0.9,0c12.2,0,24.4,0,36.6,0c0.7,0,1,0.2,1.1,0.9
		c0.2,1.2,0.6,2.4,1,3.6c-0.3,0-0.6,0-0.8,0c-14.2,0-28.3,0-42.5,0c-0.3,0-0.5,0-0.8-0.1C0,52.7,0,26.4,0,0z"/>
	<path d="M75.7,96.8c-16.1,0-29.2-13.2-29.2-29.2c0-16.3,13.1-29.2,29.5-29.1c15.9,0,29,13.3,28.9,29.2
		C104.8,83.8,91.7,96.9,75.7,96.8z M75.7,88.9c11.7,0,21.2-9.6,21.2-21.3c0-11.7-9.5-21.2-21.3-21.2c-11.8,0-21.3,9.5-21.3,21.4
		C54.4,79.4,64,88.9,75.7,88.9z"/>
	<path d="M35.8,55.2c-3.3-3.2-6.5-6.3-9.8-9.5c-2.8,6.4-5.6,12.6-8.4,19c-1.7-0.8-3.4-1.5-5.2-2.3c3.9-8.8,7.7-17.6,11.6-26.4
		c3.4,3.3,6.8,6.6,10.2,9.9c3.4-6.4,6.7-12.8,10.2-19.3c3.3,3.8,6.5,7.5,9.7,11.2c2.4-5.7,4.7-11.2,7.1-16.8
		c-2.1-0.9-4.2-1.8-6.4-2.7c5.3-4,10.4-7.9,15.7-11.9c0.8,6.6,1.6,13,2.5,19.6c-2.2-0.9-4.3-1.8-6.5-2.7c-0.3,0.7-0.6,1.4-0.9,2.1
		c-1.7,4-3.3,7.9-5,11.9c-0.1,0.3-0.3,0.5-0.6,0.7c-2.9,1.5-5.5,3.5-7.9,5.8c-0.1,0.1-0.1,0.1-0.3,0.2c-2.1-2.4-4.1-4.8-6.3-7.2
		C42.3,42.8,39.1,49,35.8,55.2z"/>
</g>
<g>
</g>
<g>
</g>
<g>
</g>
<g>
</g>
<g>
</g>
<g>
</g>
</svg>
