<?xml version="1.0" encoding="utf-8"?>
<!-- Generator: Adobe Illustrator 25.2.1, SVG Export Plug-In . SVG Version: 6.00 Build 0)  -->
<svg version="1.1" id="Camada_1" xmlns="http://www.w3.org/2000/svg" xmlns:xlink="http://www.w3.org/1999/xlink" x="0px" y="0px"
	 viewBox="0 0 40.7 43.5" style="enable-background:new 0 0 40.7 43.5;" xml:space="preserve">
<style type="text/css">
	.st0{fill:#FFFFFF;}
</style>
<g>
	<g>
		<path class="st0" d="M39.7,21.3c0,5.7-1.6,9.7-4.5,13.2c-0.7,0.9-0.7,0.5-0.1,1.6c0.9,1.5,1.7,3.1,2.2,4.8
			c0.1,0.4,0.1,0.8,0.1,1.1c0,1-0.7,1.5-1.6,1.4c-0.9-0.1-1.7-0.5-2.5-1c-1.3-0.9-2.6-1.8-3.9-2.7c-0.3-0.2-0.5-0.2-0.8-0.1
			c-5.3,2.3-10.5,2.3-15.8,0c-0.3-0.1-0.5-0.1-0.8,0.1c-1.4,1-2.9,2-4.4,3C7,43,6.4,43.2,5.8,43.4c-1.2,0.3-2-0.4-1.9-1.6
			c0-1,0.4-1.9,0.8-2.8c0.5-1.1,1.1-2.2,1.7-3.2c0.2-0.4,0.2-0.6-0.1-0.9c-1.3-1.4-2.3-3-3.1-4.8c-3-7.3-2.1-14.1,3-20.2
			c3.3-4,7.8-6.2,13-6.5c9.1-0.7,16.6,5,19.3,12.4C39.3,17.9,39.7,20.1,39.7,21.3z M36.4,22.4c0.3-8.4-7-15.9-15.8-15.9
			C12.8,6.5,4.8,13,4.8,22.3c0,8.7,7.1,15.9,15.9,15.8C30.1,38,36.6,30.1,36.4,22.4z"/>
		<path class="st0" d="M38.1,11c-1.1-1.7-2.4-3.2-3.8-4.6c-1.4-1.3-3-2.5-4.9-3.3c0.1-0.1,0.1-0.2,0.2-0.3c0.7-0.7,1.3-1.4,2-2
			c1-0.9,2.4-0.9,3.4-0.1c1.7,1.4,3.3,2.8,4.9,4.3c1,0.9,1.1,2.3,0.4,3.5c-0.2,0.3-0.5,0.6-0.7,0.9C39.1,9.9,38.6,10.4,38.1,11z"/>
		<path class="st0" d="M2.6,11C1.8,10,1,9.1,0.3,8.1C-0.3,7.2,0,5.8,0.8,5c1.6-1.5,3.3-3,5-4.5c0.9-0.8,2.5-0.7,3.4,0.1
			c0.7,0.7,1.4,1.5,2.2,2.3C7.7,4.8,4.9,7.5,2.6,11z"/>
		<path class="st0" d="M21.4,15.5c0,1.5,0,3.1,0,4.6c0,0.5,0.1,0.7,0.7,0.8c0.5,0.1,1.1,0.1,1.6,0.1c2.1,0,4.2,0.1,6.3,0.1
			c0.6,0,1,0.3,1.2,0.8c0.4,0.8-0.2,1.7-1.1,1.8c-1.9,0-3.8,0.1-5.7,0.1c-0.5,0-1,0-1.5,0c-0.5,0-0.9,0.1-1.3,0.3
			c-0.9,0.5-2,0.2-2.6-0.7c-0.5-0.9-0.3-2,0.6-2.5c0.3-0.2,0.4-0.4,0.4-0.7c0-2.9,0-5.8,0-8.7c0-0.2,0-0.4,0-0.6
			c0-0.5,0.2-0.7,0.6-0.7c0.4,0,0.8,0.3,0.8,0.8C21.4,12.3,21.4,13.9,21.4,15.5z"/>
	</g>
</g>
<g>
</g>
<g>
</g>
<g>
</g>
<g>
</g>
<g>
</g>
<g>
</g>
</svg>
