<?xml version="1.0" encoding="utf-8"?>
<!-- Generator: Adobe Illustrator 25.2.1, SVG Export Plug-In . SVG Version: 6.00 Build 0)  -->
<svg version="1.1" id="Camada_1" xmlns="http://www.w3.org/2000/svg" xmlns:xlink="http://www.w3.org/1999/xlink" x="0px" y="0px"
	 viewBox="0 0 50.5 50.5" style="enable-background:new 0 0 50.5 50.5;" xml:space="preserve">
<style type="text/css">
	.st0{fill:url(#SVGID_1_);}
	.st1{fill:#FFFFFF;}
</style>
<linearGradient id="SVGID_1_" gradientUnits="userSpaceOnUse" x1="0" y1="25.2476" x2="50.4951" y2="25.2476">
	<stop  offset="0" style="stop-color:#2B6900"/>
	<stop  offset="1" style="stop-color:#95E861"/>
</linearGradient>
<path class="st0" d="M39.7,50.5h-29C4.8,50.5,0,45.7,0,39.7v-29C0,4.8,4.8,0,10.8,0h29c5.9,0,10.8,4.8,10.8,10.8v29
	C50.5,45.7,45.7,50.5,39.7,50.5z"/>
<path class="st1" d="M34.5,33.3l1.1-7.3h-6.9v-4.8c0-2,1-4,4-4h3.1V11c0,0-2.8-0.5-5.6-0.5c-5.7,0-9.4,3.5-9.4,9.9V26h-6.3v7.3h6.3
	v17.2h7.8V33.3H34.5z"/>
<g>
</g>
<g>
</g>
<g>
</g>
<g>
</g>
<g>
</g>
<g>
</g>
</svg>
