<?xml version="1.0" encoding="utf-8"?>
<!-- Generator: Adobe Illustrator 25.2.1, SVG Export Plug-In . SVG Version: 6.00 Build 0)  -->
<svg version="1.1" id="Camada_1" xmlns="http://www.w3.org/2000/svg" xmlns:xlink="http://www.w3.org/1999/xlink" x="0px" y="0px"
	 viewBox="0 0 129.8 129.9" style="enable-background:new 0 0 129.8 129.9;" xml:space="preserve">
<g>
	<path d="M0,71c0.6-1,1.4-1.5,2.5-1.7c2-0.4,4-0.8,6.2-1.3c-1.3-1.8-2.4-3.5-3.6-5.2C3.9,61,4,60.3,5.5,58.8
		c1.8-1.8,3.6-3.7,5.5-5.5c1.3-1.3,2.1-1.3,3.6-0.3c1.8,1.2,3.5,2.4,5.5,3.8c0.4-2.1,0.8-4,1.2-5.9c0.5-2.3,0.8-2.6,3-3
		c0.4-5,1.4-9.8,3.5-14.4C32.6,23,40.4,15.7,51.1,11.7c5.3-2,10.8-2.8,16.4-2.3c1.3,0.1,2.3-0.2,3.4-1c1.3-1.1,2.7-2.1,4.1-3.1
		c2.1-1.5,2.9-1.4,4.5,0.7c1.4,1.8,2.7,3.6,4.1,5.5c0.6,0.8,1.3,1.4,2.4,1.2c1.2-0.2,1.6-1.1,1.8-2.2c0.4-2.5,0.7-5.1,1.1-7.6
		c0.3-1.7,1.2-2.3,2.9-2.1c3.9,0.6,7.9,1.1,11.8,1.7c2,0.3,2.6,1.2,2.3,3.3c-0.3,2.4-0.7,4.8-1,7.1c-0.2,1.1,0,2.1,1,2.6
		c1,0.6,1.9,0.2,2.8-0.5c2-1.5,3.9-3,5.9-4.4c1.5-1.1,2.6-1,3.8,0.5c2.4,3.1,4.7,6.3,7.1,9.4c1.2,1.6,1,2.6-0.6,3.9
		c-1.9,1.5-3.8,2.9-5.8,4.3c-0.9,0.7-1.5,1.5-1.2,2.7c0.3,1.1,1.3,1.5,2.3,1.6c2.4,0.3,4.9,0.7,7.3,1c1.8,0.3,2.5,1.3,2.3,3.1
		c-0.6,3.8-1.1,7.7-1.7,11.5c-0.3,2-1.1,2.7-3.2,2.4c-2.4-0.3-4.9-0.7-7.3-1c-1-0.2-2,0-2.6,1c-0.6,1-0.3,1.9,0.3,2.8
		c1.5,1.9,2.9,3.8,4.3,5.8c1.3,1.8,1.2,2.8-0.5,4.1c-3.1,2.3-6.1,4.6-9.2,6.9c-1.7,1.3-2.7,1.1-4-0.6c-1.5-1.9-2.9-3.8-4.3-5.8
		c-0.6-0.9-1.4-1.5-2.6-1.2c-1.2,0.3-1.6,1.3-1.7,2.4c-0.3,2.4-0.7,4.9-1,7.3c-0.3,1.8-1.1,2.5-2.9,2.2c-4-0.5-7.9-1.1-11.9-1.7
		c-1.9-0.3-2.5-1.1-2.3-3.1c0.3-2.2,0.6-4.4,0.9-6.6c0.1-0.4,0.2-0.8,0.1-1.1c-0.3-0.7-0.5-1.6-1-2.1c-0.7-0.7-1.7-0.4-2.5,0.2
		c-2,1.5-4,3-6,4.5c-1.8,1.3-2.8,1.2-4.2-0.6c-2.3-3-4.6-6.1-6.8-9.1c-1.3-1.7-1.1-2.7,0.6-4c1.9-1.5,3.8-2.9,5.8-4.3
		c0.9-0.7,1.4-1.5,1.1-2.6c-0.3-1.1-1.1-1.5-2.2-1.6c-2.4-0.3-4.8-0.7-7.1-1c-2.1-0.3-2.8-1.1-2.5-3.3c0.5-3.9,1.1-7.8,1.7-11.7
		c0.3-1.8,1.2-2.5,3-2.2c2.5,0.3,4.9,0.7,7.4,1.1c1.1,0.2,2,0,2.6-0.9c0.6-0.9,0.4-1.8-0.3-2.7c-1.5-2-3-3.9-4.4-5.9
		c-0.5-0.7-0.8-1.5-1.3-2.5c-2.1,0.3-4.5,0.4-6.9,0.9c-12.8,2.9-21.9,10.5-26.5,22.7c-4.7,12.3-2.9,24.1,4.8,34.8
		c2.6,3.7,6,6.6,9.8,9.1c3,1.9,5.1,4.5,6.1,8c0.4,1.5,0.6,3.1,0.7,4.6c0.1,2.6,0,5.2,0,7.9c0,2.9,1.7,4.7,4.6,4.7
		c5.5,0,11.1,0,16.6,0c2.9,0,4.6-1.8,4.6-4.7c0-2.6,0-5.2,0-7.7c0.1-5.2,2.2-9.4,6.4-12.4c1.7-1.2,3.3-2.4,5.1-3.8
		c0.9,1,1.8,2,2.8,3.2c-1.6,1.2-3.1,2.5-4.7,3.5c-3.8,2.5-5.5,5.9-5.4,10.4c0.1,2.4,0,4.7,0,7.1c0,2.9-1.2,5.3-3.5,7.1
		c-0.4,0.3-0.7,1-0.7,1.5c-0.1,3.5,0,6.9,0,10.4c0,5.4-3.6,9.1-9,9.1c-2.6,0-5.2,0-7.7,0c-5.4-0.1-9-3.7-9.1-9.1c0-3.5,0-7,0-10.5
		c0-0.5-0.3-1.1-0.7-1.4c-2.3-1.8-3.5-4.2-3.6-7.1c0-1.9,0-3.7,0-5.9c-1,1-1.9,1.8-2.7,2.7c-1.6,1.5-2.3,1.6-4.1,0.4
		c-1.7-1.2-3.4-2.3-5.2-3.6c-0.5,2.3-0.9,4.5-1.4,6.6c-0.4,1.7-1,2.2-2.7,2.2c-2.5,0-5.1,0-7.6,0c-1.6,0-2.3-0.6-2.6-2.1
		c-0.5-2.1-0.9-4.3-1.4-6.6c-1.7,1.1-3.2,2.2-4.8,3.3c-2.5,1.7-2.8,1.7-4.9-0.5c-1.7-1.7-3.4-3.3-5-5c-1.3-1.3-1.4-2.1-0.3-3.7
		c1.2-1.7,2.4-3.5,3.7-5.4c-2.1-0.4-4-0.9-5.9-1.2c-1.2-0.2-2.3-0.6-2.9-1.8C0,77.6,0,74.3,0,71z M108.6,66.2
		c2.4-1.8,4.6-3.5,6.9-5.2c-1.3-1.7-2.4-3.2-3.6-4.8c-1.7-2.4-2-4.9-0.5-7.5c1.4-2.4,4-3.4,7-3c1.8,0.3,3.7,0.5,5.6,0.8
		c0.4-2.9,0.8-5.6,1.2-8.5c-0.7-0.1-1.3-0.2-1.8-0.3c-1.6-0.3-3.3-0.4-4.9-0.8c-2.5-0.5-4.1-2.1-4.8-4.5c-0.7-2.5-0.1-4.7,1.9-6.4
		c1.7-1.5,3.6-2.8,5.5-4.3c-1.5-2-2.9-3.9-4.4-5.8c-0.2-0.3-0.5-0.6-0.8-1c-1.7,1.3-3.3,2.6-5,3.7c-2.8,2-6.3,1.6-8.5-0.7
		c-1.8-1.9-2-4.2-1.6-6.6c0.3-1.6,0.5-3.2,0.7-5C98.6,6,95.8,5.6,93,5.2c-0.3,2-0.6,3.9-0.9,5.8c-0.4,2.9-1.9,4.9-4.8,5.8
		c-2.7,0.8-5.2-0.2-7.2-2.8c-1.1-1.5-2.3-3-3.5-4.6c-2.3,1.8-4.6,3.4-6.9,5.2c1.3,1.7,2.5,3.3,3.7,4.9c1.7,2.3,2,4.9,0.4,7.4
		c-1.5,2.5-3.8,3.4-6.7,3c-1.9-0.3-3.9-0.5-5.9-0.8c-0.4,2.9-0.8,5.7-1.2,8.5c2.1,0.3,4,0.6,5.9,0.9c3.7,0.5,6.1,3.4,5.8,7.1
		c-0.2,2.1-1.3,3.6-2.9,4.8c-1.5,1.1-3.1,2.3-4.7,3.5c1.6,2.1,3.1,4.1,4.6,6.1c0.2,0.2,0.4,0.4,0.6,0.7c1.6-1.2,3.2-2.4,4.8-3.6
		c1.6-1.2,3.4-1.7,5.4-1.3c3.7,0.8,5.7,4,5,8c-0.3,1.8-0.5,3.6-0.8,5.5c3,0.4,5.7,0.8,8.5,1.2c0.3-1.9,0.5-3.7,0.7-5.5
		c0.4-3.2,2.1-5.4,4.9-6.1c2.7-0.7,5.2,0.3,7.2,2.9C106.3,63.1,107.4,64.6,108.6,66.2z M30.6,99.6c0.4-1.7,0.7-3.2,1-4.8
		c0.9-3.8,4-5.1,7.3-2.8c1.3,0.9,2.6,1.8,4,2.8c1.3-1.4,2.5-2.7,3.8-3.9c0.7-0.6,0.6-1.1,0.3-1.8c-1.5-3.5-4.9-4.9-7.5-7.1
		c-3.8,6.5-10.2,7.8-14.8,6.5c-5.3-1.4-9.3-5.9-9.5-11.5c-0.3-7.7,3.9-12.2,11.2-14c-0.5-2.2-1.1-4.4-1.6-6.7
		c-0.1,0.3-0.2,0.4-0.2,0.6c-1.2,4.3-4,5.3-7.7,2.8c-1.2-0.8-2.4-1.7-3.7-2.5c-1.3,1.3-2.4,2.5-3.6,3.6c-0.1,0.1-0.1,0.2-0.2,0.4
		c0.9,1.4,1.9,2.7,2.8,4.1c1.9,2.9,0.7,6.1-2.7,6.9c-1.7,0.4-3.4,0.7-5,1.1c0,1.8,0,3.4,0,5.1c1.6,0.3,3.1,0.7,4.6,1
		c4,0.9,5.2,4,2.9,7.4c-0.9,1.3-1.8,2.5-2.5,3.7c1.4,1.4,2.6,2.7,3.9,4c1.3-0.9,2.7-1.9,4.1-2.8c3.1-2,6.3-0.8,7.1,2.8
		c0.4,1.6,0.7,3.3,1.1,5C27.2,99.6,28.8,99.6,30.6,99.6z M28.7,84.5c2.7-0.1,5.3-1.6,7-4.7c0.4-0.7,0.3-1.1-0.2-1.6
		c-2.7-2.8-5-5.9-6.6-9.4c-0.6-1.4-1.5-1.5-2.7-1.2c-4.3,1-7.1,4.9-6.7,9.1C19.9,81.2,23.4,84.4,28.7,84.5z M73.8,119.2
		c-5.8,0-11.5,0-17.2,0c0,0.8,0,1.5,0,2.3c0.2,2.3,1.9,4,4.2,4.1c3,0.1,5.9,0.1,8.9,0c2.3-0.1,4-1.8,4.1-4
		C73.8,120.8,73.8,120,73.8,119.2z M56.7,114.7c5.7,0,11.4,0,17.1,0c0-1.4,0-2.8,0-4.1c-5.7,0-11.4,0-17.1,0
		C56.7,112,56.7,113.3,56.7,114.7z"/>
	<path d="M28.4,0c1.5,5.7,2.9,11.4,4.4,17.2c-1.4,0.4-2.7,0.7-4.2,1.1c-1.5-5.7-2.9-11.4-4.4-17.1c1.3-0.4,2.5-0.8,3.6-1.2
		C28.1,0,28.2,0,28.4,0z"/>
	<path d="M67.3,91c-1.4,0-2.7,0-4,0c-0.4-1.6-0.6-3.3-1.2-4.9c-1.3-3.4-3.6-6-7-7.5c-4.5-1.9-8.6-4.4-12-8
		c-11.5-12.1-10.5-32.3,2.2-43.1c1.2-1,2.4-1.9,3.8-3c0.8,1.3,1.5,2.4,2.3,3.6c-0.8,0.6-1.7,1.2-2.4,1.9C34,42.3,37,65.8,54.7,73.7
		c3.6,1.6,6.8,3.5,9.2,6.7C66.1,83.5,67.3,87,67.3,91z"/>
	<path d="M5.8,15.2c0.9-1.2,1.7-2.3,2.5-3.5c5.1,3.6,10,7.2,15.1,10.8c-0.8,1.2-1.6,2.3-2.5,3.5C15.8,22.4,10.8,18.9,5.8,15.2z"/>
	<path d="M3.3,41.4c-0.4-1.4-0.7-2.7-1-4.2c5.8-1.4,11.4-2.9,17.2-4.3c0.3,1.4,0.7,2.7,1,4.2C14.7,38.6,9.1,40,3.3,41.4z"/>
	<path d="M102.6,94.9c0.9-1.1,1.8-2.2,2.7-3.3c4.3,3.6,8.6,7.1,12.9,10.8c-0.9,1.1-1.8,2.2-2.8,3.3C111.2,102,107,98.5,102.6,94.9z"
		/>
	<path d="M97.4,112.6c-1.4,0-2.7,0-4.1,0c0-5,0-10,0-15c1.4,0,2.7,0,4.1,0C97.4,102.5,97.4,107.5,97.4,112.6z"/>
	<path d="M121.2,80.4c0,1.4,0,2.7,0,4.1c-5,0-9.9,0-15,0c0-1.4,0-2.7,0-4.1C111.2,80.4,116.2,80.4,121.2,80.4z"/>
	<path d="M63.1,101.7c0-2.1,0-4.1,0-6.3c1.4,0,2.7,0,4.1,0c0,2.1,0,4.1,0,6.3C66,101.7,64.6,101.7,63.1,101.7z"/>
	<path d="M109.9,37.8c0,9.5-7.7,17.2-17.2,17.2c-9.5,0-17.3-7.8-17.3-17.3c0-9.5,7.8-17.2,17.3-17.2
		C102.2,20.6,109.9,28.3,109.9,37.8z M105.5,37.8c0-7.1-5.8-12.9-12.8-12.9c-7.1,0-13,5.9-13,12.9c0,7,5.9,12.9,12.9,12.9
		C99.7,50.7,105.5,44.8,105.5,37.8z"/>
</g>
<g>
</g>
<g>
</g>
<g>
</g>
<g>
</g>
<g>
</g>
<g>
</g>
</svg>
