<?xml version="1.0" encoding="utf-8"?>
<!-- Generator: Adobe Illustrator 25.2.1, SVG Export Plug-In . SVG Version: 6.00 Build 0)  -->
<svg version="1.1" id="Camada_1" xmlns="http://www.w3.org/2000/svg" xmlns:xlink="http://www.w3.org/1999/xlink" x="0px" y="0px"
	 viewBox="0 0 132 119.6" style="enable-background:new 0 0 132 119.6;" xml:space="preserve">
<g>
	<path d="M129.6,101.5c-4.4-5.3-8.9-10.6-13.3-15.9c-3.3-4-7.5-5.2-12.4-3.4c-0.3,0.1-0.5,0.1-0.8-0.2c-2.3-2.8-4.7-5.6-7-8.4
		c-0.3-0.3-0.3-0.5,0-0.8c0.8-0.8,1.6-1.6,2.4-2.5c2.7-3.1,4.9-6.5,6.6-10.3c2.5-5.3,3.7-10.9,3.8-16.8c0.1-2.2-0.2-4.4-0.4-6.6
		c-0.1-0.9-0.1-1.8-0.6-2.6c0-0.1,0-0.1,0-0.2c0.2-0.7-0.2-1.3-0.3-1.9c0-0.1,0-0.3,0-0.4c-0.9-3.4-2.2-6.6-3.9-9.7
		c-1.1-2-2.4-3.9-3.8-5.7c-3.2-4-6.9-7.4-11.3-10C80.1,1,71-0.9,61.2,0.4c-7,0.9-13.3,3.5-19,7.5c-0.5,0.3-0.9,0.5-1.5,0.5
		c-9.9,0-19.8,0-29.7,0c-0.5,0-1.1,0-1.6,0.1C7,8.7,5,9.7,3.2,11.3c-1.6,1.5-2.6,3.5-3,5.6c-0.3,1.7-0.3,3.5-0.1,5.2
		c0,0.1,0,0.3,0,0.4c0,29.1,0,58.1,0,87.2c0,0.2,0,0.4,0,0.6c0.7,5.3,5.1,9.2,10.4,9.2c23.6,0,47.2,0,70.8,0
		c6.6,0,10.5-5.7,10.5-10.5c-0.1-10.5,0-21,0-31.5c0-0.3-0.1-0.6,0.2-0.8c2.4,2.9,4.8,5.7,7.2,8.6c0.3,0.4,0.1,0.6-0.1,0.9
		c-2.4,4.1-2,8.8,1.1,12.5c4.5,5.4,9,10.7,13.4,16.1c3.8,4.6,10.9,5,15.2,0.8C132.7,111.8,133.1,105.7,129.6,101.5z M103.3,35.5
		C103.3,35.5,103.3,35.6,103.3,35.5C103.3,35.6,103.3,35.5,103.3,35.5z M86.5,85.1c0,8,0,16,0,24c0,2.2-1.1,3.6-2.9,4.7
		c-0.8,0.5-1.6,0.5-2.5,0.5c-23.4,0-46.7,0-70.1,0c-2,0-3.6-0.6-4.8-2.3c-0.6-0.9-0.9-1.8-0.9-2.9c0-19.3,0-38.6-0.1-57.9
		c0-10.6,0-21.2,0-31.8c0-0.5,0-1,0-1.5c0.4-1.5,1.2-2.8,2.6-3.7c0.7-0.5,1.6-0.7,2.4-0.7c8.4,0,16.7,0,25.3,0
		c-0.4,0.5-0.6,0.9-1,1.2c-3.8,4.4-6.5,9.4-8.2,14.9c0,0.1,0,0.3-0.1,0.4c0.1,0.1,0.1,0.2,0.1,0.2c0-0.1,0-0.2-0.1-0.2
		c-0.8,2.1-1.1,4.4-1.5,6.6c-0.2,1.6-0.4,3.3-0.3,4.9c0,0.8-0.3,0.9-0.9,0.9c-2.6,0-5.1,0-7.7,0c-1.3,0-2.3,0.9-2.5,2.2
		c-0.2,1.2,0.5,2.4,1.7,2.9c0.3,0.1,0.7,0.1,1,0.1c2.6,0,5.2,0,7.8,0c0.6,0,0.8,0.1,0.9,0.8c1.8,11.6,7.4,20.9,16.8,28
		c1.9,1.4,3.8,2.6,5.9,3.6c12,5.9,24.2,6.2,36.5,0.9c0.6-0.3,1.2-0.6,1.8-1c0.5-0.3,0.7-0.2,0.7,0.4C86.5,82,86.5,83.6,86.5,85.1z
		 M30.2,34.2c0,0,0,0.1,0,0.1C30.2,34.3,30.2,34.3,30.2,34.2z M82.4,76c-1.5,0.7-3,1.3-4.5,1.8c-2.6,0.8-5.3,1.3-8.1,1.5
		c-5.9,0.4-11.6-0.4-17.1-2.6c-5.8-2.4-10.7-6-14.7-10.8c-3.5-4.2-5.8-9-7.3-14.3c-0.5-2-0.9-4-1.1-6c-0.1-1.6-0.1-3.2-0.1-4.8
		c0.1-1.7,0.4-3.4,0.5-5.1c0,0,0,0,0,0c0-0.1,0-0.1,0-0.2l0,0c0.2-0.2,0.2-0.4,0.1-0.7c0-0.1,0-0.2,0-0.3l0,0
		c0.4-0.7,0.5-1.5,0.6-2.3c0.7-1.7,1.2-3.4,1.9-5c1.9-4.3,4.5-8.1,7.9-11.3c8-7.7,17.7-11.3,28.8-10.6c7.3,0.5,14,3,19.8,7.5
		c6.8,5.3,11.3,12.1,13.4,20.5c0.2,0.8,0.4,1.5,0.5,2.3c0,0,0,0,0,0c0,0.1,0,0.1,0.1,0.2c0,1.2,0.3,2.3,0.4,3.4c0.2,2,0.2,4,0,6
		c-0.7,8.6-4,16.1-9.9,22.5C90.5,71.2,86.7,73.9,82.4,76z M103.5,94.4c-1-1.7-1.1-3.4-0.1-5.2c1-1.7,2.5-2.6,4.5-2.7
		c1.3,0,2.5,0.5,3.5,1.3c0.4,0.3,0.5,0.5,0,0.9c-2.3,1.9-4.7,3.8-6.9,5.8C103.9,95,103.8,94.8,103.5,94.4z M126.2,110.3
		c-0.9,1.9-2.5,2.9-4.5,3c-1.7,0-3.1-0.6-4.1-1.8c-3.4-4-6.7-8.1-10.1-12.1c-0.3-0.3-0.2-0.5,0.1-0.8c2.4-2,4.8-3.9,7.1-5.9
		c0.3-0.3,0.4-0.2,0.7,0.1c3.4,4.1,6.8,8.1,10.2,12.2C127,106.6,127.1,108.5,126.2,110.3z"/>
	<path d="M60.6,97.3c-7.2,0-14.4,0-21.6,0c-4.1,0-8.1,0-12.2,0c-3.2,0-6.4,0-9.6,0c-1.9,0-3.1,1.7-2.6,3.5c0.4,1.1,1.4,1.8,2.9,1.8
		c14.2,0,28.4,0,42.6,0c0.4,0,0.8,0,1.1,0c1.3-0.1,2.2-1.1,2.3-2.4C63.6,98.4,62.4,97.3,60.6,97.3z"/>
	<path d="M17.1,83c3.6,0,7.3,0,10.9,0c0,0,0,0,0,0c3.7,0,7.3,0,11,0c1.5,0,2.6-1.1,2.6-2.6c0-1.4-1.1-2.7-2.6-2.7
		c-7.3,0-14.6,0-22,0c-0.7,0-1.4,0.3-1.9,0.8c-0.8,0.8-1,1.8-0.5,2.8C15.2,82.4,16,83,17.1,83z"/>
	<path d="M17.2,63.1c1.1,0,2.2,0,3.3,0c0,0,0,0,0,0c1.1,0,2.3,0,3.4,0c1.5,0,2.6-1.2,2.6-2.6c0-1.4-1.1-2.6-2.6-2.6
		c-2.3,0-4.6,0-6.9,0c-1.5,0-2.6,1.2-2.6,2.6C14.5,62,15.6,63.1,17.2,63.1z"/>
	<path d="M96.8,32.3c-0.1,0.4,0,0.8,0.1,1.2C96.8,33.1,96.7,32.7,96.8,32.3C96.8,32.3,96.8,32.3,96.8,32.3c0-0.1,0-0.2-0.1-0.3
		c0-0.1,0-0.2,0-0.2c-1.6-4.4-4-8.3-7.2-11.6c-2.9-2.9-6.2-5.2-10-6.9c-6.5-2.8-13.2-3.4-20-1.8c-4.3,1-8.2,2.8-11.8,5.5
		c-4.6,3.4-7.9,7.7-10.2,13c-1,2.3-1.7,4.7-2,7.2c-0.3,1.1-0.4,2.1-0.4,3.2c-0.1,0.1-0.1,0.2,0,0.3c-0.2,1.2-0.1,2.4,0,3.6
		c0,0,0,0,0,0c0,0,0,0.1,0.1,0.1c0.1,0.9,0,1.7,0.2,2.6c0.7,3.9,1.9,7.6,3.8,11c8.3,14.5,26.3,20.3,41.7,12.8
		c3.8-1.9,7.1-4.5,9.9-7.7c2.2-2.5,3.9-5.3,5.2-8.3c1.4-3.2,2.2-6.6,2.4-10.1c0.2-2.3,0.1-4.6-0.3-6.9C97.8,35.9,97.4,34,96.8,32.3z
		 M92.2,34.4C92.2,34.3,92.2,34.3,92.2,34.4C92.2,34.3,92.2,34.3,92.2,34.4z M40.2,43.6C40.2,43.6,40.2,43.6,40.2,43.6
		C40.2,43.6,40.2,43.6,40.2,43.6z M40.1,40.9c0-0.1,0-0.1,0-0.2C40.2,40.8,40.1,40.9,40.1,40.9z M86.6,58.9c0,0.6-0.2,1.1-0.6,1.6
		c-6.6,6.6-14.5,9.3-23.8,7.9c-4.5-0.7-8.4-2.5-11.9-5.3c-4.2-3.4-7.2-7.7-8.9-12.9c-0.7-2.1-1-4.3-1.2-6.4l0,0c0-0.1,0-0.2,0-0.3
		c0-0.2,0-0.5,0-0.7c0,0,0-0.1,0-0.1c0-0.4,0-0.9,0-1.3h0c0-0.3,0-0.5,0-0.8c0-1.2,0.2-2.3,0.5-3.4c0.5-2,1.1-3.9,1.9-5.8
		c1.8-3.8,4.3-7.1,7.6-9.7c5.1-4,10.9-6,17.4-5.7c6,0.2,11.3,2.2,16,6c1,0.8,1.8,1.7,2.7,2.5c0.3,0.3,0.3,0.7,0.3,1
		c0,6.5,0,13.1,0,19.6C86.6,49.7,86.6,54.3,86.6,58.9z M93,45.7c-0.2,1.6-0.5,3.1-1.1,4.8c0-5.6,0-10.9,0-16.4
		c0.1,0.3,0.2,0.4,0.3,0.6c0,0,0,0,0,0l0,0c0,0,0,0,0,0c0.2,0.8,0.3,1.7,0.7,2.5c-0.1,0.1-0.1,0.1,0,0.2c0.1,0.2,0.2,0.5,0.3,0.8
		c-0.1-0.3-0.2-0.5-0.3-0.8C93.2,40.2,93.4,43,93,45.7z"/>
	<path d="M76.2,47c0.8-0.7,1-1.9,0.7-2.9c-0.4-1-1.3-1.6-2.5-1.6c-4.8,0-9.7,0-14.5,0c-4.9,0-9.7,0-14.6,0c-1.5,0-2.6,1.1-2.6,2.6
		c0,1.5,1.1,2.6,2.6,2.6c9.7,0,19.5,0,29.2,0C75.1,47.7,75.7,47.4,76.2,47z"/>
	<path d="M74.2,57.9c-6.5,0-13,0-19.5,0c-0.6,0-1.1,0-1.7,0.1c-1.1,0.2-1.8,0.8-2.1,1.9c-0.5,1.7,0.8,3.3,2.7,3.3
		c3.5,0,6.9,0,10.4,0c0,0,0,0,0,0c3.4,0,6.8,0,10.3,0c1.2,0,2-0.5,2.5-1.5C77.5,60.2,76.8,57.9,74.2,57.9z"/>
</g>
<g>
</g>
<g>
</g>
<g>
</g>
<g>
</g>
<g>
</g>
<g>
</g>
</svg>
