<?xml version="1.0" encoding="utf-8"?>
<!-- Generator: Adobe Illustrator 25.2.1, SVG Export Plug-In . SVG Version: 6.00 Build 0)  -->
<svg version="1.1" id="Camada_1" xmlns="http://www.w3.org/2000/svg" xmlns:xlink="http://www.w3.org/1999/xlink" x="0px" y="0px"
	 viewBox="0 0 131.1 131.2" style="enable-background:new 0 0 131.1 131.2;" xml:space="preserve">
<g>
	<path d="M61.9,40.1c2.1,3.2,2.1,5.1,0,8.5c2.1,2.8,2.1,5.6,0,8.4c1.2,1.5,1.9,3.3,1.5,5.3c-0.4,2-1.5,3.6-3.3,4.5
		c-0.7,0.3-0.8,0.7-0.8,1.4c0,9.5,0,18.9,0,28.4c0,0.4,0.2,1,0.5,1.2c2.7,1.5,3.9,3.7,3.7,6.7c0,0.3,0,0.6,0,1.1c0.5,0,0.9,0,1.3,0
		c7.4,0,14.9,0,22.3,0c4.9,0,9.5-1.3,13.6-4.1c1.7-1.1,3.4-2.3,5.1-3.4c2.4-1.6,5.1-1.3,7,0.6c1.8,1.9,2,4.6,0.4,6.9
		c-2.6,3.8-5.1,7.6-8,11.2c-5.3,6.5-12.4,9.7-20.8,9.9c-6.7,0.1-13.4,0-20.1,0c-0.8,0-1.3,0.2-1.7,1c-1.2,2.1-3.1,3.2-5.5,3.3
		c-5.6,0-11.2,0-16.8,0c-2.5,0-4.4-1.2-5.6-3.3c-0.4-0.7-0.8-0.9-1.5-0.9c-3.7,0-7.5,0-11.2,0c-0.8,0-1.2,0.2-1.6,0.9
		c-1.2,2.1-3,3.3-5.5,3.3c-2.8,0-5.6,0-8.5,0c-3.6-0.1-6.3-2.8-6.3-6.4c0-5.6,0-11.2,0-16.8c0-3.7,2.8-6.4,6.5-6.4
		c2.7,0,5.5,0,8.2,0c2.6,0,4.4,1.2,5.7,3.4c0.2,0.3,0.7,0.8,1,0.8c3.7,0.1,7.5,0,11.2,0c0.3,0,0.7,0,1.2,0c0-0.7,0-1.3,0-1.9
		c0-2.6,1.2-4.5,3.4-5.8c0.4-0.2,0.8-0.7,0.8-1.1c0-9.6,0-19.2,0-28.8c0-0.1,0-0.2-0.1-0.3c-1-0.1-2-0.1-3-0.2
		c-2.8-0.3-5.2-1.5-7.6-2.9c-1.9-1.1-3.9-1.5-6.2-1.1c0,1.3,0,2.6,0,4c-7.1,0-14.1,0-21.1,0c0-15.5,0-30.9,0-46.4c7,0,13.9,0,21.1,0
		c0,1.3,0,2.7,0,4.1c1.8,0,3.4,0.2,4.9-1.1c2.4-2.2,5.5-3,8.8-3c1,0,2.1,0,3.3,0c0-2.6,0-5.1,0-7.6c0-2.3-0.1-4.7,0-7
		c0-0.6,0.3-1.3,0.8-1.8C41.2,2,44.1,0.3,47.7,0c4.7-0.3,8.2,1.8,11.2,5.2c0.3,0.3,0.3,0.9,0.3,1.3c0,4.8,0,9.6,0,14.6
		c1.3,0,2.6,0,3.8,0c3.2,0,5.1,2.3,4.6,5.4c-0.4,2.6-1.7,4.6-3.9,6c-0.3,0.2-0.5,0.3-0.8,0.5c0,0,0,0.1-0.1,0.2
		C63.9,35.7,63.6,38,61.9,40.1z M21.2,59.2c0.6,0,1.1,0,1.6,0c2.1-0.2,4,0.3,5.8,1.3c1.3,0.8,2.7,1.4,4,2c1.7,0.8,3.5,1.1,5.4,0.8
		c0-9.1,0-18.1,0-27.3c-4,2.4-8.3,2-12.5,1.9c0-1.5,0-2.8,0-4.2c1.7,0,3.3,0,4.8,0c3.2,0,5.9-1,8-3.3c0.7-0.7,1.4-0.9,2.3-0.9
		c6.1,0,12.2,0,18.4,0c2.6,0,4.3-1.7,4.3-4.2c-0.5,0-1,0-1.4,0c-8.7,0-17.3,0-26,0c-3.6,0-6.5,1-9,3.6c-0.3,0.4-1,0.6-1.5,0.6
		c-1.4,0.1-2.8,0-4.2,0C21.2,39.6,21.2,49.3,21.2,59.2z M59.2,114.2c0-3.3,0-6.7,0-10c0-1.9-0.7-2.6-2.6-2.6c-5.3,0-10.6,0-15.9,0
		c-1.9,0-2.6,0.7-2.6,2.6c0,6.7,0,13.4,0,20.1c0,1.9,0.7,2.6,2.6,2.6c5.3,0,10.6,0,15.9,0c1.9,0,2.6-0.7,2.6-2.6
		C59.2,120.9,59.2,117.6,59.2,114.2z M48.1,48.7c-2.1-3.5-2.1-4.9,0-8.6c-1.5-1.8-1.9-3.9-1.2-6.2c-1.6,0-3,0-4.5,0
		c0,21.1,0,42.2,0,63.3c4.2,0,8.4,0,12.5,0c0-9.9,0-19.7,0-29.5c-7.7-0.4-10.3-4.5-6.8-10.7C46,54.3,46,51.5,48.1,48.7z M4.3,25.4
		c0,12.7,0,25.3,0,37.9c4.2,0,8.4,0,12.5,0c0-12.7,0-25.3,0-37.9C12.7,25.4,8.6,25.4,4.3,25.4z M63.5,122.7c7.1,0,14,0.1,20.9,0
		c7.5-0.1,13.7-3.3,18.3-9.3c2.4-3.1,4.6-6.5,6.8-9.7c0.3-0.4,0.1-1.2,0.2-1.8c-0.6,0-1.3-0.1-1.8,0.1c-1.6,1-3.2,2.1-4.7,3.1
		c-4.9,3.3-10.4,4.9-16.3,4.9c-7.3,0-14.6,0-21.9,0c-0.5,0-0.9,0-1.4,0C63.5,114.3,63.5,118.4,63.5,122.7z M16.9,116.4
		c0-2.7,0-5.4,0-8.1c0-1.8-0.8-2.6-2.6-2.6c-2.5,0-5,0-7.5,0c-1.8,0-2.6,0.8-2.6,2.6c0,5.3,0,10.7,0,16c0,1.8,0.8,2.6,2.6,2.6
		c2.5,0,5,0,7.5,0c1.8,0,2.6-0.8,2.6-2.6C16.9,121.7,16.9,119.1,16.9,116.4z M42.3,21.1c4.3,0,8.5,0,12.7,0c0-4.5,0-8.9,0-13.3
		c0-0.3-0.2-0.7-0.5-1c-3.1-3.3-8.6-3.3-11.7,0c-0.3,0.3-0.5,0.7-0.5,1.1C42.3,12.2,42.3,16.6,42.3,21.1z M21.2,122.6
		c4.3,0,8.4,0,12.5,0c0-4.2,0-8.4,0-12.5c-4.2,0-8.3,0-12.5,0C21.2,114.2,21.2,118.4,21.2,122.6z M54.9,38.1c0.7,0,1.5,0,2.2,0
		c1.2-0.1,2.1-1,2.1-2.1c0-1.1-0.8-2-2-2c-1.5-0.1-2.9-0.1-4.4,0c-1.2,0.1-2.1,1-2.1,2.1c0,1.1,0.8,2,2,2.1
		C53.5,38.1,54.2,38.1,54.9,38.1z M55,46.5C55,46.5,55,46.5,55,46.5c0.7,0,1.3,0,2,0c0.1,0,0.2,0,0.3,0c1.2-0.1,2-1,2-2.1
		c0-1.1-0.8-2-2-2.1c-1.5-0.1-3-0.1-4.5,0c-1.2,0.1-2,1-2,2.1c0,1.1,0.8,2,2,2.1C53.5,46.6,54.2,46.5,55,46.5z M54.9,55
		c0.7,0,1.5,0,2.2,0c1.2-0.1,2.1-1,2.1-2.1c0-1.1-0.8-2-2-2c-1.5-0.1-2.9-0.1-4.4,0c-1.2,0.1-2.1,1-2.1,2.1c0,1.1,0.8,2,2,2
		C53.5,55,54.2,55,54.9,55z M55,63.4c0.7,0,1.4,0,2.1,0c1.2-0.1,2.1-1,2.1-2.1c0-1.1-0.8-2-2-2c-1.5-0.1-2.9-0.1-4.4,0
		c-1.2,0-2.1,1-2.1,2.1c0,1.1,0.8,2,2,2.1C53.5,63.5,54.3,63.4,55,63.4z"/>
	<path d="M101.4,95.3c-2-0.1-4.1,0-6-0.3c-4.9-0.8-8.5-5.1-8.6-10.1c0-2.2,0-4.5,0-6.7c0-0.8-0.3-1.7-0.7-2.4
		c-3.3-5.3-6.7-10.4-9.9-15.8c-10.8-18.2,0-41.3,20.9-44.8c16.2-2.7,32.2,9.4,33.9,25.7c0.8,7.5-0.8,14.3-4.9,20.6
		c-3.1,4.8-6.1,9.6-9.1,14.4c-0.3,0.6-0.5,1.3-0.6,2c-0.1,2.9,0.1,5.8-0.3,8.7c-0.7,5-5.1,8.6-10.2,8.7
		C104.4,95.2,102.9,95.2,101.4,95.3C101.4,95.2,101.4,95.2,101.4,95.3z M101.4,74c3.6,0,7.1,0,10.7,0c0.5,0,1.2-0.4,1.4-0.8
		c3.2-4.9,6.3-9.8,9.4-14.7c2.1-3.3,3.3-6.9,3.8-10.9C129,29.6,112,15,94.6,20C78.2,24.7,71,43.7,80.1,58.5c3,4.9,6.2,9.8,9.4,14.7
		c0.3,0.4,0.9,0.8,1.4,0.8C94.4,74.1,97.9,74,101.4,74z M112.1,78.4c-7.1,0-14.1,0-21.1,0c0,2.2,0,4.3,0,6.5c0.1,3.3,2.8,6,6.1,6.1
		c3,0.1,6,0.1,9,0c3.1-0.1,5.8-2.6,6-5.6C112.2,83,112.1,80.7,112.1,78.4z"/>
	<path d="M42.4,105.8c1.4,0,2.7,0,4.1,0c0,1.3,0,2.7,0,4.1c-1.3,0-2.7,0-4.1,0C42.4,108.6,42.4,107.3,42.4,105.8z"/>
	<path d="M42.4,114.3c1.4,0,2.7,0,4.1,0c0,1.4,0,2.7,0,4.1c-1.4,0-2.7,0-4.1,0C42.4,117.1,42.4,115.7,42.4,114.3z"/>
	<path d="M46.6,72c1.3,0,2.6,0,4.1,0c0,1.3,0,2.7,0,4.1c-1.3,0-2.6,0-4.1,0C46.6,74.7,46.6,73.4,46.6,72z"/>
	<path d="M46.6,80.4c1.4,0,2.7,0,4.1,0c0,1.4,0,2.7,0,4.1c-1.3,0-2.7,0-4.1,0C46.6,83.2,46.6,81.9,46.6,80.4z"/>
	<path d="M50.7,93c-1.4,0-2.7,0-4.1,0c0-1.4,0-2.7,0-4.1c1.4,0,2.7,0,4.1,0C50.7,90.3,50.7,91.6,50.7,93z"/>
	<path d="M67.8,114.3c1.4,0,2.7,0,4.1,0c0,1.4,0,2.7,0,4.1c-1.4,0-2.7,0-4.1,0C67.8,117.1,67.8,115.7,67.8,114.3z"/>
	<path d="M80.3,114.3c0,1.4,0,2.7,0,4.1c-1.3,0-2.7,0-4.1,0c0-1.3,0-2.7,0-4.1C77.6,114.3,78.9,114.3,80.3,114.3z"/>
	<path d="M97.3,36c0,1.7-0.1,3.2,0,4.6c0.1,2,1.8,3.6,3.9,3.8c5.8,0.5,8.7,3.7,8.7,9.6c0,2.4,0,4.8,0,7.3c-2.1,0-4.1,0-6.3,0
		c0,1.4,0,2.8,0,4.2c-1.5,0-2.8,0-4.3,0c0-1.2,0-2.3,0-3.4c0-0.7-0.2-1-0.9-1.3c-3.4-1.4-5.5-4.4-5.4-7.8c1.3,0,2.7,0,4,0
		c0.8,3.1,2.1,4.2,5.3,4.2c1,0,2.1,0,3.2,0c0-1.7,0.1-3.3,0-4.8c-0.2-2-1.9-3.6-3.9-3.6c-4.4,0.1-9-3.5-8.7-9.4c0.1-2.5,0-4.9,0-7.5
		c2.1,0,4.2,0,6.3,0c0-1.4,0-2.8,0-4.2c1.4,0,2.8,0,4.3,0c0,1.1,0,2.2,0,3.4c0,0.8,0.2,1.1,1,1.4c3.3,1.3,5.3,4.3,5.3,7.7
		c-1.3,0-2.7,0-4,0c-1-3.4-2.1-4.1-5.7-4.1C99.3,36,98.4,36,97.3,36z"/>
	<path d="M80.4,44.5c1.4,0,2.7,0,4.2,0c-0.4,6.3,3.5,10.7,6.6,15.7c-1.2,0.7-2.3,1.5-3.5,2.2C84.1,56.9,80,51.7,80.4,44.5z"/>
	<path d="M93.1,70.9c-0.9-1.4-1.8-2.8-2.7-4.2c1.2-0.8,2.3-1.5,3.6-2.3c0.9,1.4,1.7,2.7,2.7,4.2C95.5,69.4,94.4,70.1,93.1,70.9z"/>
	<path d="M119.2,32.6c0.7,1.4,1.4,2.7,2.2,4.2c-1.4,0.5-2.6,1-3.9,1.5c-0.6-1.1-1.1-2.2-1.7-3.3C116.8,34.2,117.9,33.5,119.2,32.6z"
		/>
	<path d="M118.4,45.7c0-1.3,0-2.4,0-3.8c1.2-0.2,2.5-0.4,4-0.6c0.1,1.6,0.2,3,0.2,4.6C121.2,45.9,119.9,45.8,118.4,45.7z"/>
	<path d="M117.9,49.5c1.3,0.4,2.6,0.7,4.1,1.1c-0.6,1.5-1.2,2.8-1.8,4.4c-1.3-0.7-2.5-1.4-3.7-2C116.9,51.8,117.4,50.7,117.9,49.5z"
		/>
</g>
<g>
</g>
<g>
</g>
<g>
</g>
<g>
</g>
<g>
</g>
<g>
</g>
</svg>
