<?xml version="1.0" encoding="utf-8"?>
<!-- Generator: Adobe Illustrator 24.1.2, SVG Export Plug-In . SVG Version: 6.00 Build 0)  -->
<svg version="1.1" id="Camada_1" xmlns="http://www.w3.org/2000/svg" xmlns:xlink="http://www.w3.org/1999/xlink" x="0px" y="0px"
	 viewBox="0 0 249 77" style="enable-background:new 0 0 249 77;" xml:space="preserve">
<style type="text/css">
	.st0{fill:#F4F4F4;}
	.st1{fill:#6DBB00;}
	.st2{fill:#FFFFFF;}
</style>
<g>
	<circle class="st0" cx="38.5" cy="38.5" r="38.5"/>
	<path class="st0" d="M245.2,67H42.8c-2.1,0-3.8-1.7-3.8-3.8V13.8c0-2.1,1.7-3.8,3.8-3.8h202.3c2.1,0,3.8,1.7,3.8,3.8v49.3
		C249,65.3,247.3,67,245.2,67z"/>
</g>
<g>
	<g>
		<path class="st1" d="M236.5,60.7H79.2c-2.2,0-3.9-1.7-3.9-3.9V44.6c0-2.2,1.7-3.9,3.9-3.9h157.2c2.2,0,3.9,1.7,3.9,3.9v12.2
			C240.4,59,238.6,60.7,236.5,60.7z"/>
		<g>
			<path class="st2" d="M83.2,56.5c-0.9-0.2-1.6-0.6-2.2-0.9l1.1-2.5c0.5,0.4,1.1,0.6,1.8,0.8c0.7,0.2,1.4,0.3,2.1,0.3
				c1.3,0,1.9-0.3,1.9-1c0-0.3-0.2-0.6-0.6-0.8c-0.4-0.2-1-0.3-1.8-0.5c-0.9-0.2-1.6-0.4-2.2-0.6c-0.6-0.2-1.1-0.6-1.5-1.1
				s-0.6-1.1-0.6-2c0-0.7,0.2-1.4,0.6-2c0.4-0.6,1-1,1.8-1.4s1.7-0.5,2.9-0.5c0.8,0,1.5,0.1,2.3,0.3c0.8,0.2,1.4,0.4,2,0.8l-1,2.5
				c-1.1-0.6-2.2-0.9-3.3-0.9c-0.7,0-1.2,0.1-1.5,0.3c-0.3,0.2-0.5,0.5-0.5,0.8s0.2,0.6,0.5,0.7c0.4,0.2,0.9,0.3,1.7,0.5
				c0.9,0.2,1.7,0.4,2.2,0.6c0.6,0.2,1.1,0.6,1.5,1c0.4,0.5,0.7,1.1,0.7,2c0,0.7-0.2,1.4-0.6,1.9c-0.4,0.6-1,1-1.8,1.4
				c-0.8,0.3-1.8,0.5-2.9,0.5C85.1,56.9,84.1,56.8,83.2,56.5z"/>
			<path class="st2" d="M94.2,56.5c-0.9-0.2-1.6-0.6-2.2-0.9l1.1-2.5c0.5,0.4,1.1,0.6,1.8,0.8c0.7,0.2,1.4,0.3,2.1,0.3
				c1.3,0,1.9-0.3,1.9-1c0-0.3-0.2-0.6-0.6-0.8c-0.4-0.2-1-0.3-1.8-0.5c-0.9-0.2-1.6-0.4-2.2-0.6c-0.6-0.2-1.1-0.6-1.5-1.1
				s-0.6-1.1-0.6-2c0-0.7,0.2-1.4,0.6-2c0.4-0.6,1-1,1.8-1.4s1.7-0.5,2.9-0.5c0.8,0,1.5,0.1,2.3,0.3c0.8,0.2,1.4,0.4,2,0.8l-1,2.5
				c-1.1-0.6-2.2-0.9-3.3-0.9c-0.7,0-1.2,0.1-1.5,0.3c-0.3,0.2-0.5,0.5-0.5,0.8s0.2,0.6,0.5,0.7c0.4,0.2,0.9,0.3,1.7,0.5
				c0.9,0.2,1.7,0.4,2.2,0.6c0.6,0.2,1.1,0.6,1.5,1c0.4,0.5,0.7,1.1,0.7,2c0,0.7-0.2,1.4-0.6,1.9c-0.4,0.6-1,1-1.8,1.4
				c-0.8,0.3-1.8,0.5-2.9,0.5C96,56.9,95.1,56.8,94.2,56.5z"/>
			<path class="st2" d="M103.8,44.8h3.4V54h5.7v2.7h-9V44.8z"/>
			<path class="st2" d="M123.6,56.8c-0.9,0-1.7-0.1-2.5-0.4c-0.8-0.3-1.4-0.7-2-1.3c-0.6-0.5-1-1.2-1.3-1.9
				c-0.3-0.7-0.5-1.5-0.5-2.4c0-0.9,0.2-1.7,0.5-2.4c0.3-0.7,0.7-1.4,1.3-1.9s1.2-1,2-1.3c0.8-0.3,1.6-0.4,2.5-0.4
				c0.9,0,1.7,0.1,2.4,0.4c0.8,0.3,1.4,0.7,1.9,1.3l-0.8,0.8c-0.5-0.5-1-0.9-1.6-1.1c-0.6-0.2-1.2-0.3-1.9-0.3c-0.7,0-1.4,0.1-2,0.4
				s-1.1,0.6-1.6,1s-0.8,1-1.1,1.6c-0.3,0.6-0.4,1.2-0.4,2s0.1,1.4,0.4,2c0.3,0.6,0.6,1.1,1.1,1.6s1,0.8,1.6,1
				c0.6,0.2,1.3,0.4,2,0.4c0.7,0,1.3-0.1,1.9-0.3c0.6-0.2,1.1-0.6,1.6-1.1L128,55c-0.5,0.6-1.2,1-1.9,1.3
				C125.3,56.6,124.5,56.8,123.6,56.8z"/>
			<path class="st2" d="M131.9,55.6h7.1v1.1h-8.4V44.8h8.1v1.1h-6.9V55.6z M131.8,50.1h6.3v1.1h-6.3V50.1z"/>
			<path class="st2" d="M142,56.7V44.8h4.4c1,0,1.9,0.2,2.6,0.5c0.7,0.3,1.3,0.8,1.7,1.4s0.6,1.3,0.6,2.2c0,0.8-0.2,1.6-0.6,2.2
				c-0.4,0.6-0.9,1.1-1.7,1.4c-0.7,0.3-1.6,0.5-2.6,0.5h-3.7l0.6-0.6v4.3H142z M143.2,52.4l-0.6-0.6h3.7c1.2,0,2.1-0.3,2.7-0.8
				c0.6-0.5,0.9-1.2,0.9-2.2c0-0.9-0.3-1.7-0.9-2.2c-0.6-0.5-1.5-0.8-2.7-0.8h-3.7l0.6-0.6V52.4z M150.1,56.7l-3-4.3h1.4l3.1,4.3
				H150.1z"/>
			<path class="st2" d="M156.4,56.7V45.9h-4.2v-1.1h9.6v1.1h-4.2v10.8H156.4z"/>
			<path class="st2" d="M163.8,56.7V44.8h1.3v11.9H163.8z"/>
			<path class="st2" d="M170.1,56.7h-1.3V44.8h8.1v1.1h-6.9V56.7z M170,50.5h6.3v1.1H170V50.5z"/>
			<path class="st2" d="M179.6,56.7V44.8h1.3v11.9H179.6z"/>
			<path class="st2" d="M189.9,56.8c-0.9,0-1.7-0.1-2.5-0.4c-0.8-0.3-1.4-0.7-2-1.3c-0.6-0.5-1-1.2-1.3-1.9
				c-0.3-0.7-0.5-1.5-0.5-2.4c0-0.9,0.2-1.7,0.5-2.4c0.3-0.7,0.7-1.4,1.3-1.9c0.6-0.5,1.2-1,2-1.3c0.8-0.3,1.6-0.4,2.5-0.4
				c0.9,0,1.7,0.1,2.4,0.4s1.4,0.7,1.9,1.3l-0.8,0.8c-0.5-0.5-1-0.9-1.6-1.1c-0.6-0.2-1.2-0.3-1.9-0.3c-0.7,0-1.4,0.1-2,0.4
				s-1.1,0.6-1.6,1s-0.8,1-1.1,1.6s-0.4,1.2-0.4,2s0.1,1.4,0.4,2s0.6,1.1,1.1,1.6s1,0.8,1.6,1c0.6,0.2,1.3,0.4,2,0.4
				c0.7,0,1.3-0.1,1.9-0.3c0.6-0.2,1.1-0.6,1.6-1.1l0.8,0.8c-0.5,0.6-1.2,1-1.9,1.3S190.8,56.8,189.9,56.8z"/>
			<path class="st2" d="M194.7,56.7l5.4-11.9h1.2l5.4,11.9h-1.3l-5-11.1h0.5l-5,11.1H194.7z M196.8,53.5l0.4-1h6.9l0.4,1H196.8z"/>
			<path class="st2" d="M208.8,56.7V44.8h4.8c1.3,0,2.4,0.3,3.3,0.8c1,0.5,1.7,1.2,2.2,2.1c0.5,0.9,0.8,1.9,0.8,3.1
				s-0.3,2.2-0.8,3.1c-0.5,0.9-1.3,1.6-2.2,2.1s-2.1,0.8-3.3,0.8H208.8z M210,55.6h3.5c1,0,2-0.2,2.7-0.6c0.8-0.4,1.4-1,1.8-1.7
				s0.6-1.6,0.6-2.5c0-1-0.2-1.8-0.6-2.5s-1-1.3-1.8-1.7c-0.8-0.4-1.7-0.6-2.7-0.6H210V55.6z"/>
			<path class="st2" d="M227.9,56.8c-0.9,0-1.7-0.1-2.5-0.4c-0.8-0.3-1.4-0.7-2-1.3c-0.6-0.5-1-1.2-1.3-1.9s-0.5-1.5-0.5-2.4
				c0-0.9,0.2-1.7,0.5-2.4s0.7-1.4,1.3-1.9c0.6-0.5,1.2-1,2-1.3c0.8-0.3,1.6-0.4,2.5-0.4c0.9,0,1.7,0.1,2.5,0.4
				c0.8,0.3,1.4,0.7,2,1.3c0.6,0.5,1,1.2,1.3,1.9c0.3,0.7,0.5,1.5,0.5,2.4c0,0.9-0.2,1.7-0.5,2.4c-0.3,0.7-0.7,1.4-1.3,1.9
				c-0.6,0.5-1.2,1-2,1.3C229.6,56.6,228.8,56.8,227.9,56.8z M227.9,55.6c0.7,0,1.4-0.1,2-0.4c0.6-0.2,1.1-0.6,1.6-1s0.8-1,1-1.6
				c0.2-0.6,0.4-1.2,0.4-2s-0.1-1.4-0.4-2c-0.2-0.6-0.6-1.1-1-1.6s-1-0.8-1.6-1c-0.6-0.2-1.3-0.4-2-0.4c-0.7,0-1.4,0.1-2,0.4
				c-0.6,0.2-1.1,0.6-1.6,1c-0.4,0.4-0.8,1-1.1,1.6s-0.4,1.2-0.4,2c0,0.7,0.1,1.3,0.4,1.9s0.6,1.1,1.1,1.6c0.4,0.4,1,0.8,1.6,1
				C226.6,55.5,227.2,55.6,227.9,55.6z"/>
		</g>
	</g>
	<g>
		<path d="M90.4,32.7c-1.1-0.3-1.9-0.7-2.6-1.1l1.3-2.9c0.6,0.4,1.4,0.7,2.2,1c0.8,0.3,1.6,0.4,2.4,0.4c1.5,0,2.3-0.4,2.3-1.1
			c0-0.4-0.2-0.7-0.6-0.9c-0.4-0.2-1.1-0.4-2.1-0.6c-1.1-0.2-1.9-0.5-2.6-0.7c-0.7-0.3-1.3-0.7-1.8-1.3s-0.8-1.3-0.8-2.3
			c0-0.9,0.2-1.6,0.7-2.3s1.2-1.2,2.1-1.6c0.9-0.4,2.1-0.6,3.4-0.6c0.9,0,1.8,0.1,2.7,0.3c0.9,0.2,1.7,0.5,2.4,0.9l-1.2,2.9
			c-1.3-0.7-2.6-1.1-3.9-1.1c-0.8,0-1.4,0.1-1.7,0.4c-0.4,0.2-0.5,0.5-0.5,0.9c0,0.4,0.2,0.7,0.6,0.8c0.4,0.2,1.1,0.4,2.1,0.6
			c1.1,0.2,2,0.5,2.7,0.7c0.7,0.3,1.3,0.7,1.8,1.2c0.5,0.6,0.8,1.3,0.8,2.3c0,0.8-0.2,1.6-0.7,2.3s-1.2,1.2-2.1,1.6
			c-0.9,0.4-2.1,0.6-3.4,0.6C92.6,33.1,91.5,32.9,90.4,32.7z"/>
		<path d="M101.8,18.8h4v14h-4V18.8z"/>
		<path d="M111.5,21.9h-4.3v-3.1h12.5v3.1h-4.3v10.9h-4V21.9z"/>
		<path d="M132.5,29.7v3.1h-11.2v-14h11v3.1h-7.1v2.4h6.2v3h-6.2v2.6H132.5z"/>
		<path d="M142.1,32.7c-1.1-0.3-1.9-0.7-2.6-1.1l1.3-2.9c0.6,0.4,1.4,0.7,2.2,1c0.8,0.3,1.6,0.4,2.4,0.4c1.5,0,2.3-0.4,2.3-1.1
			c0-0.4-0.2-0.7-0.7-0.9s-1.1-0.4-2.1-0.6c-1.1-0.2-1.9-0.5-2.6-0.7c-0.7-0.3-1.3-0.7-1.8-1.3s-0.8-1.3-0.8-2.3
			c0-0.9,0.2-1.6,0.7-2.3c0.5-0.7,1.2-1.2,2.1-1.6c0.9-0.4,2.1-0.6,3.4-0.6c0.9,0,1.8,0.1,2.7,0.3c0.9,0.2,1.7,0.5,2.4,0.9l-1.2,2.9
			c-1.3-0.7-2.6-1.1-3.9-1.1c-0.8,0-1.4,0.1-1.7,0.4s-0.5,0.5-0.5,0.9c0,0.4,0.2,0.7,0.6,0.8s1.1,0.4,2.1,0.6c1.1,0.2,2,0.5,2.6,0.7
			c0.7,0.3,1.3,0.7,1.8,1.2c0.5,0.6,0.8,1.3,0.8,2.3c0,0.8-0.2,1.6-0.7,2.3c-0.5,0.7-1.2,1.2-2.1,1.6s-2.1,0.6-3.4,0.6
			C144.3,33.1,143.2,32.9,142.1,32.7z"/>
		<path d="M164.7,29.7v3.1h-11.2v-14h11v3.1h-7.1v2.4h6.2v3h-6.2v2.6H164.7z"/>
		<path d="M176.2,25.5h3.5v5.8c-0.8,0.6-1.7,1-2.8,1.3c-1,0.3-2.1,0.5-3.1,0.5c-1.5,0-2.8-0.3-4-0.9c-1.2-0.6-2.1-1.5-2.8-2.6
			c-0.7-1.1-1-2.4-1-3.8s0.3-2.7,1-3.8s1.6-2,2.8-2.6c1.2-0.6,2.5-0.9,4-0.9c1.3,0,2.5,0.2,3.5,0.7c1,0.4,1.9,1.1,2.6,1.9l-2.5,2.3
			c-0.9-1-2.1-1.6-3.4-1.6c-1.2,0-2.2,0.4-2.9,1.1c-0.7,0.7-1.1,1.7-1.1,2.9c0,0.8,0.2,1.5,0.5,2.1s0.8,1.1,1.4,1.4s1.3,0.5,2.1,0.5
			c0.8,0,1.5-0.2,2.1-0.5V25.5z"/>
		<path d="M183.9,31.4c-1.2-1.1-1.7-2.7-1.7-4.8v-7.8h4v7.6c0,2.2,0.9,3.4,2.7,3.4c1.8,0,2.6-1.1,2.6-3.4v-7.6h3.9v7.8
			c0,2.1-0.6,3.7-1.7,4.8c-1.2,1.1-2.8,1.7-4.8,1.7S185,32.5,183.9,31.4z"/>
		<path d="M204.1,29.1h-2.2v3.7h-4v-14h6.4c1.3,0,2.4,0.2,3.3,0.6c0.9,0.4,1.7,1,2.2,1.8c0.5,0.8,0.8,1.7,0.8,2.8
			c0,1-0.2,1.9-0.7,2.7c-0.5,0.8-1.1,1.3-2,1.8l3,4.4h-4.2L204.1,29.1z M206,22.5c-0.4-0.4-1-0.5-1.8-0.5h-2.2V26h2.2
			c0.8,0,1.4-0.2,1.8-0.5c0.4-0.4,0.6-0.9,0.6-1.5C206.6,23.3,206.4,22.8,206,22.5z"/>
		<path d="M215.8,32.1c-1.2-0.6-2.1-1.5-2.8-2.6c-0.7-1.1-1-2.4-1-3.7s0.3-2.6,1-3.7c0.7-1.1,1.6-2,2.8-2.6c1.2-0.6,2.5-0.9,4-0.9
			c1.5,0,2.8,0.3,4,0.9c1.2,0.6,2.1,1.5,2.8,2.6c0.7,1.1,1,2.4,1,3.7s-0.3,2.6-1,3.7c-0.7,1.1-1.6,2-2.8,2.6c-1.2,0.6-2.5,0.9-4,0.9
			C218.4,33.1,217,32.8,215.8,32.1z M221.8,29.3c0.6-0.3,1-0.8,1.4-1.4c0.3-0.6,0.5-1.3,0.5-2.1c0-0.8-0.2-1.5-0.5-2.1
			c-0.3-0.6-0.8-1.1-1.4-1.4s-1.2-0.5-1.9-0.5s-1.3,0.2-1.9,0.5s-1,0.8-1.4,1.4s-0.5,1.3-0.5,2.1c0,0.8,0.2,1.5,0.5,2.1
			c0.3,0.6,0.8,1.1,1.4,1.4s1.2,0.5,1.9,0.5S221.2,29.6,221.8,29.3z"/>
	</g>
</g>
<g>
	<path class="st1" d="M37.7,19.5c-5.9,0-10.6,4.8-10.6,10.6v3h-3c-1.7,0-3,1.4-3,3v18.2c0,1.7,1.4,3,3,3h27.4c1.7,0,3-1.4,3-3V36.2
		c0-1.7-1.4-3-3-3h-3v-3c0-5.7-4.5-10.2-10.1-10.5C38.1,19.5,37.9,19.5,37.7,19.5z M37.7,22.5c4.2,0,7.6,3.4,7.6,7.6v3H30.1v-3
		C30.1,25.9,33.5,22.5,37.7,22.5z"/>
	<polygon class="st2" points="28.5,46 32.3,42.2 35.4,45.2 43.1,37.7 47,41.6 35.4,52.9 	"/>
</g>
<g>
</g>
<g>
</g>
<g>
</g>
<g>
</g>
<g>
</g>
<g>
</g>
<g>
</g>
<g>
</g>
<g>
</g>
<g>
</g>
<g>
</g>
</svg>
