<?xml version="1.0" encoding="utf-8"?>
<!-- Generator: Adobe Illustrator 25.2.1, SVG Export Plug-In . SVG Version: 6.00 Build 0)  -->
<svg version="1.1" id="Camada_1" xmlns="http://www.w3.org/2000/svg" xmlns:xlink="http://www.w3.org/1999/xlink" x="0px" y="0px"
	 viewBox="0 0 259.7 70.6" style="enable-background:new 0 0 259.7 70.6;" xml:space="preserve">
<style type="text/css">
	.st0{fill:#67C122;}
	.st1{fill:#FFFFFF;}
</style>
<g>
	<g>
		<path class="st0" d="M65.8,15c0,5.6-0.9,11-2.4,16.4c-0.3,1-0.1,1.5,0.8,2c7.7,4,12,12.3,10.6,20.6c-1.4,8.6-8,15.2-16.6,16.5
			c-6.4,0.9-11.9-1-16.6-5.4c-0.8-0.7-1.3-0.8-2.2-0.3c-1.3,0.9-2.7,1.5-4,2.3c-1.8,1-3.5,0.9-5.3,0c-10.5-5.4-18.5-13.3-23.7-24
			C3.6,37,2,30.5,1.2,23.8c-0.4-3.2-0.9-6.3-1.1-9.5c-0.3-3.5,0.8-4.7,4.2-5.1c6.8-0.8,13.2-2.9,19.1-6.4C28.6-0.3,34.1-1,39.8,1.5
			c2.8,1.2,5.5,2.8,8.3,4.1c4.3,1.9,8.8,3,13.5,3.6c3.6,0.5,4.4,1.4,4.3,5C65.8,14.5,65.8,14.7,65.8,15z M61,13.9
			c-7.6-0.9-14.6-3.2-21-7c-4.7-2.8-9.4-2.8-14.1,0c-4.4,2.6-9.1,4.5-14,5.7c-2.3,0.6-4.6,0.9-7,1.4c0.1,1.2,0.3,2.3,0.4,3.4
			C6,23.2,6.5,29,8.3,34.5c4.1,12.6,12,21.8,23.7,28c0.3,0.2,0.8,0.3,1.1,0.2c1.6-0.8,3.2-1.6,4.8-2.5c-3.5-7.3-3.3-14.3,1.4-20.8
			c4.7-6.5,11.3-8.9,19.1-8C60.1,25.6,61.2,19.9,61,13.9z M55.3,65.8c8.2,0.1,15-6.6,15-14.9c0.1-8-6.6-14.9-14.5-15
			c-8.5-0.1-15.3,6.5-15.4,14.9C40.3,59,47.1,65.8,55.3,65.8z"/>
		<path class="st0" d="M52.2,53.6c3.1-3.1,6-6.1,8.9-9.1c0.2-0.2,0.3-0.3,0.5-0.5c1.4-1.3,2.8-1.4,3.8-0.4c1,1.1,0.9,2.4-0.5,3.8
			c-3.4,3.4-6.7,6.7-10.1,10.1c-1.8,1.8-3.4,1.8-5.3,0c-1.3-1.3-2.6-2.6-3.9-4c-1.2-1.3-1.3-2.7-0.3-3.7c1-1,2.4-0.9,3.7,0.4
			C50.1,51.2,51,52.3,52.2,53.6z"/>
	</g>
</g>
<g>
	<path class="st1" d="M94,28.4c-1.6,0-3.1-0.4-4.5-1.2c-1.3-0.8-2.4-1.8-3.2-3.2c-0.8-1.4-1.1-2.9-1.1-4.5c0-2.5,0.8-4.6,2.5-6.3
		c1.7-1.7,3.8-2.6,6.3-2.6c2.1,0,3.9,0.6,5.4,1.9c1.5,1.2,2.5,2.9,2.9,4.9h-3.7c-0.2-0.7-0.6-1.2-1-1.7c-0.4-0.5-1-0.9-1.6-1.1
		c-0.6-0.3-1.3-0.4-2-0.4c-1.4,0-2.6,0.5-3.6,1.5c-1,1-1.4,2.3-1.4,3.8s0.5,2.8,1.4,3.8c1,1,2.2,1.5,3.6,1.5c1.1,0,2.1-0.3,2.9-0.9
		s1.4-1.5,1.7-2.6h3.7c-0.4,2.1-1.3,3.8-2.9,5.1S96.1,28.4,94,28.4z"/>
	<path class="st1" d="M113,28.4c-2.6,0-4.7-0.8-6.5-2.5c-1.7-1.7-2.6-3.8-2.6-6.3c0-2.5,0.9-4.6,2.6-6.3c1.7-1.7,3.9-2.5,6.5-2.5
		c1.7,0,3.2,0.4,4.6,1.2c1.4,0.8,2.5,1.8,3.2,3.2c0.8,1.4,1.2,2.9,1.2,4.5c0,2.5-0.9,4.7-2.6,6.3C117.8,27.5,115.6,28.4,113,28.4z
		 M113,24.9c1,0,1.9-0.2,2.7-0.7c0.8-0.5,1.4-1.1,1.9-1.9c0.5-0.8,0.7-1.7,0.7-2.8c0-1.5-0.5-2.8-1.5-3.8s-2.3-1.5-3.8-1.5
		c-1.5,0-2.8,0.5-3.8,1.5s-1.5,2.3-1.5,3.8s0.5,2.8,1.5,3.8C110.2,24.4,111.5,24.9,113,24.9z"/>
	<path class="st1" d="M145.6,28h-3.7l-1.7-11.1L135.1,28h-0.9l-5.1-11.1L127.5,28h-3.8l2.7-17h3.7l4.6,10.4l4.6-10.4h3.7L145.6,28z"
		/>
	<path class="st1" d="M155,11c1.7,0,3.1,0.6,4.3,1.7s1.7,2.5,1.7,4.2s-0.6,3.1-1.7,4.2c-1.1,1.1-2.6,1.7-4.3,1.7h-2.8V28h-3.7V11
		H155z M154.8,19.3c0.7,0,1.3-0.2,1.8-0.7c0.4-0.5,0.7-1,0.7-1.7s-0.2-1.3-0.7-1.8c-0.4-0.5-1-0.7-1.8-0.7h-2.7v4.9H154.8z"/>
	<path class="st1" d="M172.9,28l-3.3-5.8h-2.4V28h-3.7V11h6.9c1.1,0,2.1,0.2,3,0.7c0.9,0.5,1.6,1.1,2.1,2c0.5,0.9,0.8,1.8,0.8,2.9
		s-0.3,2.1-0.8,2.9c-0.6,0.9-1.3,1.5-2.3,2L177,28H172.9z M167.2,14.4v4.4h2.9c0.7,0,1.3-0.2,1.8-0.6c0.4-0.4,0.7-0.9,0.7-1.6
		c0-0.4-0.1-0.8-0.3-1.2s-0.5-0.6-0.8-0.8c-0.4-0.2-0.8-0.3-1.3-0.3H167.2z"/>
	<path class="st1" d="M190.8,28l-1.2-3.2h-6.8l-1.2,3.2h-3.9l6.7-17h3.5l6.9,17H190.8z M186.2,15.5l-2.2,6.1h4.4L186.2,15.5z"/>
	<path class="st1" d="M200.9,11.9h5.9V28h-3.4V14.9h-2.5V11.9z"/>
	<path class="st1" d="M216.5,28.3c-1.3,0-2.5-0.3-3.5-1s-1.7-1.7-2.3-2.9c-0.5-1.3-0.8-2.7-0.8-4.4c0-2.6,0.6-4.6,1.8-6.1
		s2.8-2.2,4.8-2.2c2,0,3.6,0.7,4.8,2.2s1.7,3.5,1.7,6.1c0,2.6-0.6,4.6-1.8,6.1C220.1,27.5,218.5,28.3,216.5,28.3z M214.3,23.7
		c0.5,0.9,1.3,1.3,2.3,1.3c1,0,1.7-0.4,2.3-1.3c0.5-0.9,0.8-2.2,0.8-3.8c0-1.7-0.3-2.9-0.8-3.8c-0.5-0.9-1.3-1.3-2.2-1.3
		c-1,0-1.7,0.4-2.3,1.3c-0.5,0.9-0.8,2.2-0.8,3.8C213.5,21.6,213.7,22.9,214.3,23.7z"/>
	<path class="st1" d="M231.9,28.3c-1.3,0-2.5-0.3-3.5-1s-1.7-1.7-2.3-2.9c-0.5-1.3-0.8-2.7-0.8-4.4c0-2.6,0.6-4.6,1.8-6.1
		s2.8-2.2,4.8-2.2c2,0,3.6,0.7,4.8,2.2s1.7,3.5,1.7,6.1c0,2.6-0.6,4.6-1.8,6.1C235.5,27.5,233.9,28.3,231.9,28.3z M229.7,23.7
		c0.5,0.9,1.3,1.3,2.3,1.3c1,0,1.7-0.4,2.3-1.3c0.5-0.9,0.8-2.2,0.8-3.8c0-1.7-0.3-2.9-0.8-3.8c-0.5-0.9-1.3-1.3-2.2-1.3
		c-1,0-1.7,0.4-2.3,1.3c-0.5,0.9-0.8,2.2-0.8,3.8C228.9,21.6,229.1,22.9,229.7,23.7z"/>
	<path class="st1" d="M247,18.2c-0.7,0.7-1.7,1.1-2.8,1.1c-1.1,0-2.1-0.4-2.8-1.1c-0.7-0.7-1.1-1.7-1.1-2.8c0-1.1,0.4-2.1,1.1-2.8
		s1.7-1.1,2.8-1.1c1.1,0,2.1,0.4,2.8,1.1c0.7,0.7,1.1,1.6,1.1,2.8C248.1,16.6,247.7,17.5,247,18.2z M244.2,16.8c0.4,0,0.7-0.1,1-0.4
		c0.3-0.3,0.4-0.6,0.4-1c0-0.4-0.1-0.7-0.4-1c-0.3-0.3-0.6-0.4-1-0.4s-0.7,0.1-1,0.4c-0.3,0.3-0.4,0.6-0.4,1c0,0.4,0.1,0.7,0.4,1
		C243.5,16.7,243.8,16.8,244.2,16.8z M242.9,28l9.7-16.2h2.8L245.7,28H242.9z M257.1,27.2c-0.7,0.7-1.6,1.1-2.8,1.1
		c-1.1,0-2.1-0.4-2.8-1.1c-0.7-0.7-1.1-1.7-1.1-2.8c0-0.7,0.2-1.4,0.5-2c0.3-0.6,0.8-1.1,1.4-1.4s1.2-0.5,2-0.5
		c1.1,0,2.1,0.4,2.8,1.1c0.7,0.7,1.1,1.7,1.1,2.8C258.2,25.5,257.8,26.4,257.1,27.2z M254.3,25.7c0.4,0,0.7-0.1,1-0.4
		c0.3-0.3,0.4-0.6,0.4-1c0-0.4-0.1-0.7-0.4-1s-0.6-0.4-1-0.4c-0.4,0-0.7,0.1-1,0.4s-0.4,0.6-0.4,1c0,0.4,0.1,0.7,0.4,1
		C253.6,25.6,253.9,25.7,254.3,25.7z"/>
</g>
<g>
	<g>
		<path class="st0" d="M96.2,67c-3.6,0-6.4-0.9-8.6-2.8c-2.2-1.9-3.3-4.5-3.3-7.7H91c0,0.7,0.1,1.4,0.4,1.9c0.3,0.6,0.7,1,1.1,1.4
			s1,0.6,1.6,0.8c0.6,0.2,1.3,0.3,1.9,0.3c1.3,0,2.5-0.3,3.5-1c1-0.6,1.5-1.5,1.5-2.6c0-0.5-0.1-0.9-0.3-1.2s-0.5-0.7-0.8-0.9
			c-0.3-0.2-0.8-0.4-1.4-0.7c-0.6-0.2-1.2-0.4-1.6-0.5c-0.4-0.1-1.1-0.3-2-0.5c-0.7-0.2-1.2-0.3-1.6-0.4c-0.3-0.1-0.9-0.2-1.6-0.4
			c-0.7-0.2-1.2-0.4-1.6-0.5c-0.4-0.2-0.8-0.4-1.4-0.7c-0.6-0.3-1-0.6-1.4-0.9c-0.3-0.3-0.7-0.7-1.1-1.1s-0.7-0.9-0.9-1.4
			c-0.2-0.5-0.4-1-0.5-1.7c-0.1-0.6-0.2-1.3-0.2-2c0-2.9,1-5.2,3-6.8c2-1.6,4.7-2.4,8.1-2.4c3.5,0,6.2,0.9,8.1,2.6
			c1.9,1.7,2.9,4.2,2.9,7.2h-6.6c0-1.3-0.4-2.2-1.3-2.9c-0.9-0.7-2-1-3.3-1c-1.2,0-2.2,0.2-3,0.7c-0.9,0.5-1.3,1.2-1.3,2.1
			c0,0.4,0.1,0.8,0.3,1.2s0.5,0.6,0.8,0.8c0.3,0.2,0.7,0.4,1.4,0.7c0.6,0.2,1.1,0.4,1.6,0.5c0.4,0.1,1.1,0.3,1.9,0.5
			c0.9,0.2,1.6,0.4,2.1,0.5c0.5,0.1,1.1,0.3,2,0.7c0.9,0.3,1.6,0.6,2,0.9c0.5,0.3,1,0.7,1.7,1.2c0.6,0.5,1.1,1,1.5,1.6
			c0.3,0.6,0.6,1.3,0.9,2.1c0.2,0.8,0.4,1.7,0.4,2.6c0,2.1-0.5,3.9-1.6,5.5c-1.1,1.5-2.5,2.6-4.2,3.3C100.3,66.7,98.4,67,96.2,67z"
			/>
		<path class="st0" d="M119.8,60.2h12.2v6.2h-18.8V35.8h18.4v6.1h-11.7v6h10.6v6h-10.6V60.2z"/>
		<path class="st0" d="M150.5,50.4h16.3c0,4.8-1.5,8.8-4.4,12c-2.9,3.1-6.7,4.7-11.2,4.7c-4.5,0-8.3-1.5-11.3-4.5
			c-3-3-4.5-6.8-4.5-11.4c0-4.6,1.5-8.4,4.5-11.5c3-3,6.7-4.5,11.2-4.5c3.8,0,7.2,1.1,10,3.3c2.9,2.2,4.6,5,5.3,8.4h-6.8
			c-0.4-1.1-1.1-2.1-1.9-2.9c-0.8-0.8-1.8-1.4-2.9-1.9c-1.1-0.4-2.3-0.7-3.6-0.7c-2.7,0-4.9,0.9-6.6,2.7c-1.7,1.8-2.5,4.1-2.5,7
			c0,1.9,0.4,3.5,1.1,5s1.8,2.6,3.2,3.4c1.4,0.8,3,1.2,4.8,1.2c1.3,0,2.5-0.2,3.7-0.7c1.2-0.4,2.2-1.1,3-1.9s1.4-1.7,1.8-2.7h-9.2
			V50.4z"/>
		<path class="st0" d="M193.3,63.6c-2.4,2.3-5.4,3.4-9,3.4s-6.7-1.1-9-3.4c-2.4-2.3-3.6-5.2-3.6-8.7V35.8h6.6v18.8
			c0,1.9,0.6,3.4,1.7,4.5c1.1,1.1,2.5,1.7,4.3,1.7s3.2-0.6,4.3-1.7c1.1-1.1,1.7-2.6,1.7-4.5V35.8h6.6v19.1
			C196.9,58.4,195.7,61.4,193.3,63.6z"/>
		<path class="st0" d="M220.4,66.4l-5.9-10.4h-4.2v10.4h-6.6V35.8h12.4c2,0,3.8,0.4,5.5,1.3c1.6,0.9,2.9,2.1,3.8,3.6
			c0.9,1.5,1.4,3.3,1.4,5.2c0,2-0.5,3.7-1.5,5.3c-1,1.6-2.3,2.8-4.1,3.6l6.8,11.6H220.4z M210.2,41.9v7.9h5.3c1.3,0,2.4-0.4,3.2-1.1
			s1.2-1.7,1.2-2.8c0-0.8-0.2-1.5-0.5-2.1s-0.9-1.1-1.5-1.4c-0.7-0.3-1.5-0.5-2.4-0.5H210.2z"/>
		<path class="st0" d="M252.5,66.4l-2.1-5.8h-12.2l-2.1,5.8h-7l12-30.6h6.3l12.4,30.6H252.5z M244.2,43.9l-4,10.9h8L244.2,43.9z"/>
	</g>
</g>
<g>
</g>
<g>
</g>
<g>
</g>
<g>
</g>
<g>
</g>
<g>
</g>
</svg>
