<?xml version="1.0" encoding="utf-8"?>
<!-- Generator: Adobe Illustrator 25.2.1, SVG Export Plug-In . SVG Version: 6.00 Build 0)  -->
<svg version="1.1" id="Camada_1" xmlns="http://www.w3.org/2000/svg" xmlns:xlink="http://www.w3.org/1999/xlink" x="0px" y="0px"
	 viewBox="0 0 259.7 70.6" style="enable-background:new 0 0 259.7 70.6;" xml:space="preserve">
<style type="text/css">
	.st0{fill:#67C122;}
	.st1{fill:#FFFFFF;}
	.st2{font-family:'Mont-Bold';}
	.st3{font-size:24.2868px;}
	.st4{font-size:43.7087px;}
</style>
<g>
	<g>
		<path class="st0" d="M65.8,15c0,5.6-0.9,11-2.4,16.4c-0.3,1-0.1,1.5,0.8,2c7.7,4,12,12.3,10.6,20.6c-1.4,8.6-8,15.2-16.6,16.5
			c-6.4,0.9-11.9-1-16.6-5.4c-0.8-0.7-1.3-0.8-2.2-0.3c-1.3,0.9-2.7,1.5-4,2.3c-1.8,1-3.5,0.9-5.3,0c-10.5-5.4-18.5-13.3-23.7-24
			C3.6,37,2,30.5,1.2,23.8c-0.4-3.2-0.9-6.3-1.1-9.5c-0.3-3.5,0.8-4.7,4.2-5.1c6.8-0.8,13.2-2.9,19.1-6.4C28.6-0.3,34.1-1,39.8,1.5
			c2.8,1.2,5.5,2.8,8.3,4.1c4.3,1.9,8.8,3,13.5,3.6c3.6,0.5,4.4,1.4,4.3,5C65.8,14.5,65.8,14.7,65.8,15z M61,13.9
			c-7.6-0.9-14.6-3.2-21-7c-4.7-2.8-9.4-2.8-14.1,0c-4.4,2.6-9.1,4.5-14,5.7c-2.3,0.6-4.6,0.9-7,1.4c0.1,1.2,0.3,2.3,0.4,3.4
			C6,23.2,6.5,29,8.3,34.5c4.1,12.6,12,21.8,23.7,28c0.3,0.2,0.8,0.3,1.1,0.2c1.6-0.8,3.2-1.6,4.8-2.5c-3.5-7.3-3.3-14.3,1.4-20.8
			c4.7-6.5,11.3-8.9,19.1-8C60.1,25.6,61.2,19.9,61,13.9z M55.3,65.8c8.2,0.1,15-6.6,15-14.9c0.1-8-6.6-14.9-14.5-15
			c-8.5-0.1-15.3,6.5-15.4,14.9C40.3,59,47.1,65.8,55.3,65.8z"/>
		<path class="st0" d="M52.2,53.6c3.1-3.1,6-6.1,8.9-9.1c0.2-0.2,0.3-0.3,0.5-0.5c1.4-1.3,2.8-1.4,3.8-0.4c1,1.1,0.9,2.4-0.5,3.8
			c-3.4,3.4-6.7,6.7-10.1,10.1c-1.8,1.8-3.4,1.8-5.3,0c-1.3-1.3-2.6-2.6-3.9-4c-1.2-1.3-1.3-2.7-0.3-3.7c1-1,2.4-0.9,3.7,0.4
			C50.1,51.2,51,52.3,52.2,53.6z"/>
	</g>
</g>
<text transform="matrix(1 0 0 1 84.2856 28.007)" class="st1 st2 st3">compra 100%</text>
<g>
	<text transform="matrix(1 0 0 1 82.5561 66.3898)" class="st0 st2 st4">segura</text>
</g>
</svg>
